%MOIN*%
%LPD*%
%FSLAX66Y66*%
G01*
G36*
X0080038Y0405233D02*
X0080038Y0406233D01*
X0075036Y0406233D01*
X0072035Y0408234D01*
X0068033Y0412237D01*
X0067032Y0414238D01*
X0066032Y0416239D01*
X0066032Y1319757D01*
X0067032Y1321758D01*
X0073035Y1327762D01*
X0075036Y1328762D01*
X0077037Y1329763D01*
X0231111Y1329763D01*
X0231111Y1339769D01*
X0330159Y1339769D01*
X0330159Y1329763D01*
X0385185Y1329763D01*
X0436210Y1382793D01*
X0436210Y1470844D01*
X0439211Y1474846D01*
X0501241Y1536882D01*
X0504242Y1538883D01*
X0506243Y1539884D01*
X1225589Y1539884D01*
X1229591Y1536882D01*
X1231592Y1534881D01*
X1233593Y1531879D01*
X1234593Y1529878D01*
X1234593Y1520873D01*
X1231592Y1516870D01*
X1229591Y1514869D01*
X1227590Y1512868D01*
X1227590Y1327762D01*
X1229591Y1326761D01*
X1231592Y1324760D01*
X1233593Y1321758D01*
X1234593Y1319757D01*
X1234593Y1310752D01*
X1231592Y1306750D01*
X1229591Y1304749D01*
X1226590Y1302747D01*
X1224589Y1301747D01*
X1219586Y1301747D01*
X1217585Y1300746D01*
X0656315Y1300746D01*
X0654315Y1297745D01*
X0650313Y1292742D01*
X0646311Y1287739D01*
X0642309Y1282736D01*
X0638307Y1277733D01*
X0634305Y1272730D01*
X0630303Y1267727D01*
X0626301Y1262724D01*
X0624300Y1259723D01*
X0624300Y1215698D01*
X0669322Y1215698D01*
X0669322Y1091626D01*
X0807388Y1091626D01*
X0809389Y1089625D01*
X0810390Y1087624D01*
X0810390Y1085623D01*
X0806388Y1082621D01*
X0669322Y1082621D01*
X0669322Y1035594D01*
X0550265Y1035594D01*
X0550265Y1056606D01*
X0414199Y1056606D01*
X0411198Y1059608D01*
X0410197Y1061609D01*
X0411198Y1063610D01*
X0413199Y1065611D01*
X0415200Y1066612D01*
X0550265Y1066612D01*
X0550265Y1184680D01*
X0414199Y1184680D01*
X0411198Y1187681D01*
X0410197Y1189683D01*
X0411198Y1191684D01*
X0413199Y1193685D01*
X0415200Y1194685D01*
X0550265Y1194685D01*
X0550265Y1215698D01*
X0595286Y1215698D01*
X0595286Y1265726D01*
X0596287Y1267727D01*
X0596287Y1270729D01*
X0598288Y1273731D01*
X0602290Y1278734D01*
X0606291Y1283737D01*
X0610293Y1288739D01*
X0614295Y1293742D01*
X0618297Y1298745D01*
X0622299Y1303748D01*
X0626301Y1308751D01*
X0630303Y1313754D01*
X0634305Y1318757D01*
X0638307Y1323760D01*
X0642309Y1327762D01*
X0644310Y1328762D01*
X0646311Y1329763D01*
X0650313Y1329763D01*
X0652314Y1330764D01*
X0785378Y1330764D01*
X0785378Y1364783D01*
X0740356Y1364783D01*
X0740356Y1426819D01*
X0860414Y1426819D01*
X0860414Y1409809D01*
X0908437Y1409809D01*
X0908437Y1429820D01*
X0971467Y1429820D01*
X0971467Y1361781D01*
X0908437Y1361781D01*
X0908437Y1380792D01*
X0860414Y1380792D01*
X0860414Y1364783D01*
X0814391Y1364783D01*
X0814391Y1330764D01*
X1213583Y1330764D01*
X1213583Y1510867D01*
X0515248Y1510867D01*
X0465224Y1458837D01*
X0465224Y1375789D01*
X0464223Y1373788D01*
X0464223Y1370786D01*
X0462222Y1367785D01*
X0397191Y1302747D01*
X0395190Y1301747D01*
X0393189Y1301747D01*
X0391188Y1300746D01*
X0330159Y1300746D01*
X0330159Y1290741D01*
X0231111Y1290741D01*
X0231111Y1300746D01*
X0095046Y1300746D01*
X0095046Y0435250D01*
X0273131Y0435250D01*
X0273131Y0474272D01*
X0247119Y0474272D01*
X0247119Y0537308D01*
X0314151Y0537308D01*
X0314151Y0474272D01*
X0287138Y0474272D01*
X0287138Y0435250D01*
X1208581Y0435250D01*
X1208581Y0543312D01*
X1196575Y0543312D01*
X1196575Y0548315D01*
X1041501Y0548315D01*
X1041501Y0522300D01*
X0979471Y0522300D01*
X0979471Y0588338D01*
X1041501Y0588338D01*
X1041501Y0562323D01*
X1196575Y0562323D01*
X1196575Y0567326D01*
X1235594Y0567326D01*
X1235594Y0543312D01*
X1222588Y0543312D01*
X1222588Y0435250D01*
X1625782Y0435250D01*
X1625782Y0762437D01*
X1626782Y0764439D01*
X1626782Y0767440D01*
X1628783Y0770442D01*
X1632785Y0774444D01*
X1633785Y0776445D01*
X1633785Y0823472D01*
X1427686Y0823472D01*
X1427686Y0794456D01*
X1435690Y0794456D01*
X1435690Y0736423D01*
X1427686Y0736423D01*
X1427686Y0683392D01*
X1423684Y0679390D01*
X1421683Y0678389D01*
X0637306Y0678389D01*
X0637306Y0618355D01*
X0575277Y0618355D01*
X0575277Y0695399D01*
X0637306Y0695399D01*
X0637306Y0692397D01*
X1073516Y0692397D01*
X1073516Y0719413D01*
X1055507Y0719413D01*
X1055507Y0817469D01*
X1104531Y0817469D01*
X1104531Y0719413D01*
X1087523Y0719413D01*
X1087523Y0692397D01*
X1413680Y0692397D01*
X1413680Y0736423D01*
X1405676Y0736423D01*
X1405676Y0794456D01*
X1413680Y0794456D01*
X1413680Y0832478D01*
X1417681Y0836480D01*
X1419682Y0837481D01*
X1642790Y0837481D01*
X1646792Y0833478D01*
X1647792Y0831477D01*
X1647792Y0777446D01*
X1700818Y0777446D01*
X1700818Y0781448D01*
X1991958Y0781448D01*
X1991958Y0742426D01*
X1700818Y0742426D01*
X1700818Y0747429D01*
X1654795Y0747429D01*
X1654795Y0415238D01*
X1652794Y0412237D01*
X1648793Y0408234D01*
X1646792Y0407234D01*
X1644791Y0406233D01*
X1640789Y0406233D01*
X1638788Y0405233D01*
X0080038Y0405233D01*
X0080038Y0405233D01*
G37*
G36*
X0357172Y0461265D02*
X0357172Y0462265D01*
X0355171Y0462265D01*
X0354170Y0464266D01*
X0353170Y0466268D01*
X0353170Y0558320D01*
X0118057Y0558320D01*
X0114055Y0562323D01*
X0113054Y0564324D01*
X0113054Y1217699D01*
X0116056Y1220700D01*
X0118057Y1221701D01*
X0120058Y1221701D01*
X0122059Y1222702D01*
X0231111Y1222702D01*
X0231111Y1239711D01*
X0375180Y1239711D01*
X0385185Y1249717D01*
X0520250Y1377791D01*
X0520250Y1426819D01*
X0566272Y1426819D01*
X0566272Y1480850D01*
X0569274Y1484852D01*
X0571275Y1486853D01*
X0574276Y1488854D01*
X0576277Y1489855D01*
X1065512Y1489855D01*
X1069514Y1486853D01*
X1071515Y1484852D01*
X1073516Y1481850D01*
X1074517Y1479849D01*
X1074517Y1429820D01*
X1091525Y1429820D01*
X1091525Y1409809D01*
X1128542Y1409809D01*
X1128542Y1429820D01*
X1192573Y1429820D01*
X1192573Y1361781D01*
X1128542Y1361781D01*
X1128542Y1380792D01*
X1091525Y1380792D01*
X1091525Y1361781D01*
X1029495Y1361781D01*
X1029495Y1429820D01*
X1045503Y1429820D01*
X1045503Y1460838D01*
X0594286Y1460838D01*
X0594286Y1426819D01*
X0639307Y1426819D01*
X0639307Y1364783D01*
X0548264Y1364783D01*
X0491236Y1310752D01*
X0408196Y1231707D01*
X0410197Y1230706D01*
X0517249Y1230706D01*
X0519250Y1227704D01*
X0520250Y1225703D01*
X0520250Y1213696D01*
X0518249Y1211695D01*
X0516248Y1210695D01*
X0330159Y1210695D01*
X0330159Y1190683D01*
X0231111Y1190683D01*
X0231111Y1208693D01*
X0127061Y1208693D01*
X0127061Y0572328D01*
X0362174Y0572328D01*
X0366176Y0568326D01*
X0367177Y0566325D01*
X0367177Y0475273D01*
X1118538Y0475273D01*
X1118538Y0506290D01*
X1105531Y0506290D01*
X1105531Y0529304D01*
X1144550Y0529304D01*
X1144550Y0506290D01*
X1132544Y0506290D01*
X1132544Y0465267D01*
X1130543Y0463266D01*
X1127542Y0461265D01*
X0357172Y0461265D01*
X0357172Y0461265D01*
G37*
G36*
X0403194Y0502288D02*
X0403194Y0568326D01*
X0429206Y0568326D01*
X0429206Y0620356D01*
X0314151Y0620356D01*
X0314151Y0594341D01*
X0247119Y0594341D01*
X0247119Y0657377D01*
X0314151Y0657377D01*
X0314151Y0630362D01*
X0375180Y0630362D01*
X0375180Y1037595D01*
X0379182Y1040597D01*
X0518249Y1040597D01*
X0518249Y1031592D01*
X0385185Y1031592D01*
X0385185Y0630362D01*
X0435209Y0630362D01*
X0438211Y0627360D01*
X0439211Y0625359D01*
X0439211Y0568326D01*
X0465224Y0568326D01*
X0465224Y0502288D01*
X0403194Y0502288D01*
X0403194Y0502288D01*
G37*
G36*
X0522251Y0502288D02*
X0522251Y0528303D01*
X0512246Y0528303D01*
X0508244Y0532305D01*
X0507244Y0534307D01*
X0507244Y0618355D01*
X0482232Y0618355D01*
X0482232Y0695399D01*
X0545262Y0695399D01*
X0545262Y0618355D01*
X0521251Y0618355D01*
X0521251Y0568326D01*
X0585281Y0568326D01*
X0585281Y0502288D01*
X0522251Y0502288D01*
X0522251Y0502288D01*
G37*
G36*
X0858413Y0522300D02*
X0858413Y0588338D01*
X0883425Y0588338D01*
X0883425Y0657377D01*
X0887427Y0661379D01*
X0889428Y0662380D01*
X1463704Y0662380D01*
X1463704Y0736423D01*
X1456700Y0736423D01*
X1456700Y0794456D01*
X1485714Y0794456D01*
X1485714Y0736423D01*
X1477710Y0736423D01*
X1477710Y0653375D01*
X1473708Y0649373D01*
X1471707Y0648372D01*
X1132544Y0648372D01*
X1132544Y0604347D01*
X1144550Y0604347D01*
X1144550Y0581334D01*
X1105531Y0581334D01*
X1105531Y0604347D01*
X1118538Y0604347D01*
X1118538Y0648372D01*
X0897431Y0648372D01*
X0897431Y0588338D01*
X0922443Y0588338D01*
X0922443Y0522300D01*
X0858413Y0522300D01*
X0858413Y0522300D01*
G37*
G36*
X1155555Y0719413D02*
X1155555Y0817469D01*
X1205580Y0817469D01*
X1205580Y0772443D01*
X1255604Y0772443D01*
X1255604Y0794456D01*
X1284618Y0794456D01*
X1284618Y0736423D01*
X1255604Y0736423D01*
X1255604Y0758435D01*
X1205580Y0758435D01*
X1205580Y0719413D01*
X1155555Y0719413D01*
X1155555Y0719413D01*
G37*
G36*
X1305628Y0736423D02*
X1305628Y0794456D01*
X1313631Y0794456D01*
X1313631Y0892512D01*
X1317633Y0896514D01*
X1319634Y0897515D01*
X1633785Y0897515D01*
X1633785Y0941540D01*
X1637787Y0945543D01*
X1639788Y0946543D01*
X1700818Y0946543D01*
X1700818Y0958550D01*
X1951938Y0958550D01*
X1951938Y0920528D01*
X1700818Y0920528D01*
X1700818Y0932535D01*
X1647792Y0932535D01*
X1647792Y0888510D01*
X1643790Y0884507D01*
X1641789Y0883507D01*
X1327638Y0883507D01*
X1327638Y0794456D01*
X1334642Y0794456D01*
X1334642Y0736423D01*
X1305628Y0736423D01*
X1305628Y0736423D01*
G37*
G36*
X1355652Y0736423D02*
X1355652Y0794456D01*
X1363656Y0794456D01*
X1363656Y0862495D01*
X1367657Y0866497D01*
X1369658Y0867498D01*
X1700818Y0867498D01*
X1700818Y0880505D01*
X1951938Y0880505D01*
X1951938Y0841483D01*
X1700818Y0841483D01*
X1700818Y0853490D01*
X1377662Y0853490D01*
X1377662Y0794456D01*
X1384666Y0794456D01*
X1384666Y0736423D01*
X1355652Y0736423D01*
X1355652Y0736423D01*
G37*
G36*
X1459702Y0552317D02*
X1459702Y0618355D01*
X1513728Y0618355D01*
X1513728Y0736423D01*
X1505724Y0736423D01*
X1505724Y0794456D01*
X1534738Y0794456D01*
X1534738Y0736423D01*
X1527734Y0736423D01*
X1527734Y0583335D01*
X1523732Y0579332D01*
X1521731Y0577331D01*
X1521731Y0552317D01*
X1459702Y0552317D01*
X1459702Y0552317D01*
G37*
G36*
X1459702Y0461265D02*
X1459702Y0528303D01*
X1521731Y0528303D01*
X1521731Y0502288D01*
X1563752Y0502288D01*
X1563752Y0736423D01*
X1555748Y0736423D01*
X1555748Y0794456D01*
X1584762Y0794456D01*
X1584762Y0736423D01*
X1577758Y0736423D01*
X1577758Y0493283D01*
X1573757Y0489281D01*
X1571756Y0488280D01*
X1521731Y0488280D01*
X1521731Y0461265D01*
X1459702Y0461265D01*
X1459702Y0461265D01*
G37*
G36*
X1338643Y0461265D02*
X1338643Y0528303D01*
X1363656Y0528303D01*
X1363656Y0552317D01*
X1338643Y0552317D01*
X1338643Y0618355D01*
X1402674Y0618355D01*
X1402674Y0552317D01*
X1377662Y0552317D01*
X1377662Y0528303D01*
X1402674Y0528303D01*
X1402674Y0461265D01*
X1338643Y0461265D01*
X1338643Y0461265D01*
G37*
G36*
X1355652Y0956549D02*
X1355652Y1014582D01*
X1365656Y1014582D01*
X1365656Y1116641D01*
X1032496Y1116641D01*
X1031496Y1114640D01*
X1029495Y1111638D01*
X1027494Y1108636D01*
X1025493Y1105634D01*
X1023492Y1102633D01*
X1021491Y1099631D01*
X1019490Y1096629D01*
X1017489Y1093627D01*
X1015488Y1090626D01*
X1013487Y1087624D01*
X1011486Y1084622D01*
X1009485Y1081621D01*
X1007484Y1078619D01*
X1005483Y1075617D01*
X1003482Y1072615D01*
X1001481Y1069614D01*
X0999480Y1066612D01*
X0997479Y1063610D01*
X0995479Y1060609D01*
X0992477Y1057607D01*
X0990476Y1056606D01*
X0701337Y1056606D01*
X0701337Y1066612D01*
X0988475Y1066612D01*
X0989476Y1068613D01*
X0991477Y1071615D01*
X0993478Y1074617D01*
X0995479Y1077618D01*
X0997479Y1080620D01*
X0999480Y1083622D01*
X1001481Y1086623D01*
X1003482Y1089625D01*
X1005483Y1092627D01*
X1007484Y1095629D01*
X1009485Y1098630D01*
X1011486Y1101632D01*
X1013487Y1104634D01*
X1015488Y1107636D01*
X1017489Y1110637D01*
X1019490Y1113639D01*
X1021491Y1116641D01*
X1023492Y1119642D01*
X1025493Y1122644D01*
X1028494Y1125646D01*
X1030495Y1126646D01*
X1371659Y1126646D01*
X1374661Y1123645D01*
X1375661Y1121644D01*
X1375661Y1014582D01*
X1384666Y1014582D01*
X1384666Y0956549D01*
X1355652Y0956549D01*
X1355652Y0956549D01*
G37*
G36*
X1405676Y0956549D02*
X1405676Y1014582D01*
X1415681Y1014582D01*
X1415681Y1142656D01*
X1006484Y1142656D01*
X1006484Y1140654D01*
X1004483Y1138653D01*
X1003482Y1136652D01*
X1002482Y1134651D01*
X1000481Y1131649D01*
X0999480Y1129648D01*
X0998480Y1127647D01*
X0996479Y1124645D01*
X0995479Y1122644D01*
X0994478Y1120643D01*
X0992477Y1117641D01*
X0991477Y1115640D01*
X0989476Y1112638D01*
X0988475Y1110637D01*
X0986474Y1108636D01*
X0984473Y1108636D01*
X0982472Y1107636D01*
X0701337Y1107636D01*
X0701337Y1117641D01*
X0982472Y1117641D01*
X0982472Y1119642D01*
X0985474Y1123645D01*
X0986474Y1125646D01*
X0987475Y1127647D01*
X0989476Y1130649D01*
X0990476Y1132650D01*
X0991477Y1134651D01*
X0993478Y1137653D01*
X0994478Y1139654D01*
X0996479Y1142656D01*
X0997479Y1144657D01*
X0998480Y1146658D01*
X1000481Y1149660D01*
X1002482Y1151661D01*
X1004483Y1152661D01*
X1421683Y1152661D01*
X1424685Y1149660D01*
X1425685Y1147658D01*
X1425685Y1014582D01*
X1435690Y1014582D01*
X1435690Y0956549D01*
X1405676Y0956549D01*
X1405676Y0956549D01*
G37*
G36*
X1456700Y0956549D02*
X1456700Y1014582D01*
X1465705Y1014582D01*
X1465705Y1168671D01*
X0980471Y1168671D01*
X0980471Y1166669D01*
X0978470Y1164668D01*
X0977470Y1162667D01*
X0976469Y1160666D01*
X0975469Y1158665D01*
X0973468Y1155663D01*
X0972467Y1153662D01*
X0971467Y1151661D01*
X0969466Y1148659D01*
X0968466Y1146658D01*
X0967465Y1144657D01*
X0965464Y1141655D01*
X0964464Y1139654D01*
X0963463Y1137653D01*
X0959461Y1133650D01*
X0701337Y1133650D01*
X0701337Y1143656D01*
X0956460Y1143656D01*
X0956460Y1145657D01*
X0958461Y1147658D01*
X0959461Y1149660D01*
X0960462Y1151661D01*
X0962463Y1154662D01*
X0963463Y1156664D01*
X0964464Y1158665D01*
X0966465Y1161667D01*
X0967465Y1163668D01*
X0968466Y1165669D01*
X0970467Y1168671D01*
X0971467Y1170672D01*
X0972467Y1172673D01*
X0974468Y1175675D01*
X0976469Y1177676D01*
X0978470Y1178676D01*
X1471707Y1178676D01*
X1474709Y1175675D01*
X1475709Y1173673D01*
X1475709Y1014582D01*
X1485714Y1014582D01*
X1485714Y0956549D01*
X1456700Y0956549D01*
X1456700Y0956549D01*
G37*
G36*
X1505724Y0956549D02*
X1505724Y1014582D01*
X1515729Y1014582D01*
X1515729Y1194685D01*
X0954459Y1194685D01*
X0954459Y1192684D01*
X0951457Y1188682D01*
X0950457Y1186681D01*
X0949456Y1184680D01*
X0947455Y1181678D01*
X0946455Y1179677D01*
X0945454Y1177676D01*
X0944454Y1175675D01*
X0942453Y1172673D01*
X0941453Y1170672D01*
X0940452Y1168671D01*
X0938451Y1165669D01*
X0937451Y1163668D01*
X0936450Y1161667D01*
X0933449Y1159665D01*
X0701337Y1159665D01*
X0701337Y1168671D01*
X0930447Y1168671D01*
X0930447Y1170672D01*
X0932448Y1173673D01*
X0934449Y1176675D01*
X0935450Y1178676D01*
X0936450Y1180677D01*
X0937451Y1182679D01*
X0939452Y1185680D01*
X0940452Y1187681D01*
X0941453Y1189683D01*
X0942453Y1191684D01*
X0944454Y1194685D01*
X0945454Y1196687D01*
X0946455Y1198688D01*
X0948456Y1201689D01*
X0950457Y1203691D01*
X0952458Y1204691D01*
X1521731Y1204691D01*
X1524733Y1201689D01*
X1525733Y1199688D01*
X1525733Y1014582D01*
X1534738Y1014582D01*
X1534738Y0956549D01*
X1505724Y0956549D01*
X1505724Y0956549D01*
G37*
G36*
X1555748Y0956549D02*
X1555748Y1015583D01*
X1556748Y1017584D01*
X1556748Y1020586D01*
X1558749Y1023587D01*
X1562751Y1027590D01*
X1564752Y1028590D01*
X1565753Y1030591D01*
X1565753Y1220700D01*
X0928446Y1220700D01*
X0928446Y1218699D01*
X0930447Y1218699D01*
X0930447Y1216698D01*
X0931448Y1214697D01*
X0929447Y1211695D01*
X0926445Y1207693D01*
X0922443Y1202690D01*
X0918441Y1197687D01*
X0915440Y1193685D01*
X0911438Y1188682D01*
X0908437Y1185680D01*
X0906436Y1184680D01*
X0701337Y1184680D01*
X0701337Y1194685D01*
X0904435Y1194685D01*
X0908437Y1199688D01*
X0912439Y1204691D01*
X0915440Y1208693D01*
X0919442Y1213696D01*
X0922443Y1217699D01*
X0924444Y1219700D01*
X0922443Y1220700D01*
X0891429Y1220700D01*
X0881424Y1210695D01*
X0701337Y1210695D01*
X0701337Y1219700D01*
X0878422Y1219700D01*
X0888427Y1229706D01*
X0890428Y1230706D01*
X1571756Y1230706D01*
X1574757Y1227704D01*
X1575757Y1225703D01*
X1575757Y1028590D01*
X1577758Y1028590D01*
X1579759Y1026589D01*
X1581760Y1024588D01*
X1583761Y1021586D01*
X1584762Y1019585D01*
X1584762Y0956549D01*
X1555748Y0956549D01*
X1555748Y0956549D01*
G37*
G36*
X1700818Y1019585D02*
X1700818Y1023587D01*
X1640789Y1023587D01*
X1638788Y1024588D01*
X1635786Y1024588D01*
X1632785Y1026589D01*
X1628783Y1030591D01*
X1627782Y1032592D01*
X1626782Y1034594D01*
X1626782Y1038596D01*
X1625782Y1040597D01*
X1625782Y1300746D01*
X1397672Y1300746D01*
X1395671Y1301747D01*
X1393670Y1302747D01*
X1388668Y1307750D01*
X1386667Y1310752D01*
X1384666Y1313754D01*
X1383665Y1315755D01*
X1381664Y1318757D01*
X1379663Y1321758D01*
X1378663Y1323760D01*
X1376662Y1326761D01*
X1374661Y1329763D01*
X1373660Y1331764D01*
X1371659Y1334766D01*
X1370659Y1336767D01*
X1368658Y1339769D01*
X1366657Y1342770D01*
X1365656Y1344772D01*
X1363656Y1347773D01*
X1361655Y1350775D01*
X1360654Y1352776D01*
X1358653Y1355778D01*
X1356652Y1358780D01*
X1355652Y1360781D01*
X1353651Y1363782D01*
X1351650Y1366784D01*
X1350649Y1368785D01*
X1348648Y1371787D01*
X1347648Y1373788D01*
X1345647Y1376790D01*
X1343646Y1379792D01*
X1341645Y1380792D01*
X1311630Y1380792D01*
X1311630Y1361781D01*
X1249601Y1361781D01*
X1249601Y1429820D01*
X1311630Y1429820D01*
X1311630Y1409809D01*
X1355652Y1409809D01*
X1359654Y1406807D01*
X1361655Y1404806D01*
X1363656Y1401804D01*
X1365656Y1398803D01*
X1367657Y1395801D01*
X1368658Y1393800D01*
X1370659Y1390798D01*
X1372660Y1387796D01*
X1373660Y1385795D01*
X1375661Y1382793D01*
X1376662Y1380792D01*
X1378663Y1377791D01*
X1380664Y1374789D01*
X1381664Y1372788D01*
X1383665Y1369786D01*
X1385666Y1366784D01*
X1386667Y1364783D01*
X1388668Y1361781D01*
X1390668Y1358780D01*
X1391669Y1356778D01*
X1393670Y1353777D01*
X1395671Y1350775D01*
X1396671Y1348774D01*
X1398672Y1345772D01*
X1399673Y1343771D01*
X1401674Y1340769D01*
X1403675Y1337768D01*
X1404675Y1335766D01*
X1406676Y1332765D01*
X1409678Y1329763D01*
X1644791Y1329763D01*
X1647792Y1327762D01*
X1653795Y1321758D01*
X1653795Y1319757D01*
X1654795Y1317756D01*
X1654795Y1052604D01*
X1700818Y1052604D01*
X1700818Y1057607D01*
X1991958Y1057607D01*
X1991958Y1019585D01*
X1700818Y1019585D01*
X1700818Y1019585D01*
G37*
G36*
X1155555Y0933536D02*
X1155555Y1031592D01*
X1205580Y1031592D01*
X1205580Y0992569D01*
X1255604Y0992569D01*
X1255604Y1014582D01*
X1284618Y1014582D01*
X1284618Y0956549D01*
X1255604Y0956549D01*
X1255604Y0978561D01*
X1205580Y0978561D01*
X1205580Y0933536D01*
X1155555Y0933536D01*
X1155555Y0933536D01*
G37*
G36*
X1055507Y0933536D02*
X1055507Y1031592D01*
X1075517Y1031592D01*
X1075517Y1086623D01*
X1078518Y1089625D01*
X1080519Y1090626D01*
X1321635Y1090626D01*
X1324637Y1087624D01*
X1325637Y1085623D01*
X1325637Y1014582D01*
X1334642Y1014582D01*
X1334642Y0956549D01*
X1305628Y0956549D01*
X1305628Y1014582D01*
X1315632Y1014582D01*
X1315632Y1080620D01*
X1085522Y1080620D01*
X1085522Y1031592D01*
X1104531Y1031592D01*
X1104531Y0933536D01*
X1055507Y0933536D01*
X1055507Y0933536D01*
G37*
G36*
X0522251Y0854490D02*
X0522251Y0932535D01*
X0555267Y0932535D01*
X0555267Y0977561D01*
X0559269Y0980563D01*
X0725349Y0980563D01*
X0725349Y1031592D01*
X0701337Y1031592D01*
X0701337Y1040597D01*
X0807388Y1040597D01*
X0810390Y1036595D01*
X0810390Y1034594D01*
X0808389Y1032592D01*
X0806388Y1031592D01*
X0735353Y1031592D01*
X0735353Y0974559D01*
X0733353Y0972558D01*
X0731352Y0971557D01*
X0565272Y0971557D01*
X0565272Y0932535D01*
X0598288Y0932535D01*
X0598288Y0854490D01*
X0522251Y0854490D01*
X0522251Y0854490D01*
G37*
G36*
X0231111Y0900517D02*
X0231111Y0920528D01*
X0199096Y0920528D01*
X0196094Y0923530D01*
X0195094Y0925531D01*
X0195094Y1113639D01*
X0199096Y1117641D01*
X0518249Y1117641D01*
X0518249Y1107636D01*
X0205099Y1107636D01*
X0205099Y0930534D01*
X0231111Y0930534D01*
X0231111Y0949545D01*
X0330159Y0949545D01*
X0330159Y0900517D01*
X0231111Y0900517D01*
X0231111Y0900517D01*
G37*
G36*
X0231111Y0800459D02*
X0231111Y0820471D01*
X0173083Y0820471D01*
X0170082Y0823472D01*
X0169081Y0825474D01*
X0169081Y1139654D01*
X0172083Y1142656D01*
X0174084Y1142656D01*
X0176085Y1143656D01*
X0518249Y1143656D01*
X0518249Y1133650D01*
X0179086Y1133650D01*
X0179086Y0830476D01*
X0231111Y0830476D01*
X0231111Y0850488D01*
X0330159Y0850488D01*
X0330159Y0800459D01*
X0231111Y0800459D01*
X0231111Y0800459D01*
G37*
G36*
X0231111Y0700402D02*
X0231111Y0720413D01*
X0147071Y0720413D01*
X0144069Y0723415D01*
X0143069Y0725416D01*
X0143069Y1165669D01*
X0147071Y1168671D01*
X0518249Y1168671D01*
X0518249Y1159665D01*
X0153074Y1159665D01*
X0153074Y0730419D01*
X0231111Y0730419D01*
X0231111Y0749430D01*
X0330159Y0749430D01*
X0330159Y0700402D01*
X0231111Y0700402D01*
X0231111Y0700402D01*
G37*
G36*
X0231111Y1000574D02*
X0231111Y1049602D01*
X0275132Y1049602D01*
X0275132Y1088625D01*
X0277133Y1090626D01*
X0279134Y1091626D01*
X0518249Y1091626D01*
X0518249Y1082621D01*
X0285137Y1082621D01*
X0285137Y1049602D01*
X0330159Y1049602D01*
X0330159Y1000574D01*
X0231111Y1000574D01*
X0231111Y1000574D01*
G37*
M02*
