%MOIN*%
%LPD*%
%FSLAX66Y66*%
G01*
%ADD10C,0.001*%
D10*
X0180087Y0050029D02*
X0180087Y0052030D01*
X0178086Y0052030D01*
X0176085Y0055032D01*
X0172083Y0059034D01*
X0168081Y0063036D01*
X0164079Y0067038D01*
X0160077Y0071041D01*
X0156075Y0075043D01*
X0152073Y0079045D01*
X0148071Y0083048D01*
X0144069Y0087050D01*
X0140067Y0091052D01*
X0136065Y0095055D01*
X0132063Y0099057D01*
X0128062Y0103059D01*
X0124060Y0107061D01*
X0120058Y0111064D01*
X0116056Y0115066D01*
X0112054Y0119068D01*
X0108052Y0123071D01*
X0104050Y0127073D01*
X0100048Y0131075D01*
X0096046Y0135077D01*
X0092044Y0139080D01*
X0088042Y0143082D01*
X0084040Y0147084D01*
X0080038Y0151087D01*
X0076037Y0155089D01*
X0072035Y0159091D01*
X0068033Y0163094D01*
X0064031Y0167096D01*
X0060029Y0171098D01*
X0056027Y0175100D01*
X0052025Y0179103D01*
X0050024Y0181104D01*
X0050024Y1569900D01*
X0182087Y1699975D01*
X1570755Y1699975D01*
X1699817Y1568900D01*
X1699817Y1139654D01*
X2039980Y1139654D01*
X2039980Y0660379D01*
X1699817Y0660379D01*
X1699817Y0180103D01*
X1567753Y0050029D01*
X0180087Y0050029D01*
X0180087Y0050029D01*
X0259125Y0194111D02*
X0261125Y0194111D01*
X0263126Y0195112D01*
X0272131Y0195112D01*
X0274132Y0196112D01*
X0277133Y0196112D01*
X0279134Y0197113D01*
X0281135Y0198114D01*
X0283136Y0198114D01*
X0285137Y0199114D01*
X0287138Y0200115D01*
X0289139Y0201115D01*
X0291140Y0202116D01*
X0294141Y0204117D01*
X0296142Y0205118D01*
X0299144Y0207119D01*
X0312150Y0220126D01*
X0315151Y0224129D01*
X0316152Y0226130D01*
X0318153Y0229131D01*
X0319153Y0231133D01*
X0320154Y0233134D01*
X0320154Y0235135D01*
X0322155Y0238137D01*
X0322155Y0240138D01*
X0323155Y0242139D01*
X0323155Y0244140D01*
X0324156Y0246141D01*
X0324156Y0248142D01*
X0325156Y0250143D01*
X0325156Y0272156D01*
X0324156Y0274157D01*
X0324156Y0276158D01*
X0323155Y0278160D01*
X0323155Y0280161D01*
X0322155Y0282162D01*
X0321154Y0284163D01*
X0320154Y0286164D01*
X0320154Y0288165D01*
X0318153Y0291167D01*
X0316152Y0294169D01*
X0315151Y0296170D01*
X0312150Y0300172D01*
X0300144Y0312179D01*
X0296142Y0315181D01*
X0294141Y0316181D01*
X0291140Y0318182D01*
X0289139Y0319183D01*
X0287138Y0320184D01*
X0285137Y0320184D01*
X0282136Y0322185D01*
X0280135Y0322185D01*
X0278134Y0323185D01*
X0276133Y0323185D01*
X0274132Y0324186D01*
X0272131Y0324186D01*
X0270130Y0325186D01*
X0248119Y0325186D01*
X0246118Y0324186D01*
X0244117Y0324186D01*
X0242116Y0323185D01*
X0240115Y0323185D01*
X0238114Y0322185D01*
X0236113Y0321184D01*
X0234112Y0320184D01*
X0232112Y0320184D01*
X0229110Y0318182D01*
X0226109Y0316181D01*
X0224108Y0315181D01*
X0220106Y0312179D01*
X0207100Y0299172D01*
X0205099Y0296170D01*
X0204098Y0294169D01*
X0202097Y0291167D01*
X0201097Y0289166D01*
X0200096Y0287165D01*
X0199096Y0285164D01*
X0199096Y0283162D01*
X0198095Y0281161D01*
X0197095Y0279160D01*
X0197095Y0277159D01*
X0196094Y0275158D01*
X0196094Y0272156D01*
X0195094Y0270155D01*
X0195094Y0261150D01*
X0194093Y0259149D01*
X0195094Y0257147D01*
X0195094Y0248142D01*
X0196094Y0246141D01*
X0196094Y0243139D01*
X0197095Y0241138D01*
X0198095Y0239137D01*
X0198095Y0237136D01*
X0199096Y0235135D01*
X0200096Y0233134D01*
X0201097Y0231133D01*
X0202097Y0229131D01*
X0203098Y0227130D01*
X0205099Y0224129D01*
X0207100Y0221127D01*
X0221106Y0207119D01*
X0224108Y0205118D01*
X0227109Y0203116D01*
X0229110Y0202116D01*
X0231111Y0201115D01*
X0233112Y0200115D01*
X0235113Y0199114D01*
X0237114Y0199114D01*
X0239115Y0198114D01*
X0241116Y0197113D01*
X0243117Y0197113D01*
X0245118Y0196112D01*
X0248119Y0196112D01*
X0250120Y0195112D01*
X0259125Y0195112D01*
X0259125Y0194111D01*
X0259125Y0194111D01*
X0874420Y0749430D02*
X0876421Y0749430D01*
X0878422Y0750430D01*
X0891428Y0750430D01*
X0893429Y0751431D01*
X0898432Y0751431D01*
X0900433Y0752431D01*
X0903434Y0752431D01*
X0905435Y0753432D01*
X0907436Y0753432D01*
X0909437Y0754433D01*
X0911438Y0754433D01*
X0913439Y0755433D01*
X0915440Y0756434D01*
X0917441Y0756434D01*
X0919442Y0757434D01*
X0921443Y0758435D01*
X0923444Y0759435D01*
X0925445Y0760436D01*
X0927446Y0760436D01*
X0930447Y0762437D01*
X0932448Y0763438D01*
X0934449Y0764438D01*
X0936450Y0765439D01*
X0939451Y0767440D01*
X0941452Y0768441D01*
X0944454Y0770442D01*
X0947455Y0772443D01*
X0951457Y0775445D01*
X0955459Y0778446D01*
X0972467Y0795456D01*
X0975469Y0799458D01*
X0978470Y0803461D01*
X0980471Y0806462D01*
X0982472Y0809464D01*
X0983473Y0811465D01*
X0985473Y0814467D01*
X0986474Y0816468D01*
X0987474Y0818469D01*
X0988475Y0820470D01*
X0989475Y0822472D01*
X0990476Y0824473D01*
X0990476Y0826474D01*
X0992477Y0829476D01*
X0992477Y0831477D01*
X0994478Y0834479D01*
X0994478Y0836480D01*
X0995478Y0838481D01*
X0995478Y0840482D01*
X0996479Y0842483D01*
X0997479Y0844484D01*
X0997479Y0847486D01*
X0998480Y0849487D01*
X0998480Y0852489D01*
X0999480Y0854490D01*
X0999480Y0859493D01*
X1000481Y0861494D01*
X1000481Y0891511D01*
X0999480Y0893512D01*
X0999480Y0898515D01*
X0998480Y0900516D01*
X0998480Y0903518D01*
X0997479Y0905519D01*
X0997479Y0907520D01*
X0996479Y0909522D01*
X0995478Y0911523D01*
X0995478Y0914524D01*
X0994478Y0916526D01*
X0993477Y0918527D01*
X0992477Y0920528D01*
X0992477Y0922529D01*
X0990476Y0925531D01*
X0990476Y0927532D01*
X0988475Y0930534D01*
X0987474Y0932535D01*
X0986474Y0934536D01*
X0985473Y0936537D01*
X0983473Y0939539D01*
X0982472Y0941540D01*
X0980471Y0944542D01*
X0978470Y0947543D01*
X0975469Y0951546D01*
X0972467Y0955548D01*
X0955459Y0972558D01*
X0951457Y0975559D01*
X0947455Y0978561D01*
X0944454Y0980562D01*
X0941452Y0982563D01*
X0939451Y0983564D01*
X0936450Y0985565D01*
X0934449Y0986566D01*
X0932448Y0987566D01*
X0930447Y0988567D01*
X0928446Y0989567D01*
X0926445Y0990568D01*
X0924444Y0990568D01*
X0921443Y0992569D01*
X0919442Y0992569D01*
X0916440Y0994570D01*
X0914439Y0994570D01*
X0912438Y0995571D01*
X0910437Y0995571D01*
X0908436Y0996571D01*
X0906436Y0997572D01*
X0903434Y0997572D01*
X0901433Y0998573D01*
X0898432Y0998573D01*
X0896431Y0999573D01*
X0891428Y0999573D01*
X0889427Y1000574D01*
X0859413Y1000574D01*
X0857412Y0999573D01*
X0852410Y0999573D01*
X0850409Y0998573D01*
X0847407Y0998573D01*
X0845406Y0997572D01*
X0843405Y0997572D01*
X0841404Y0996571D01*
X0839403Y0995571D01*
X0836402Y0995571D01*
X0834401Y0994570D01*
X0832400Y0993570D01*
X0830399Y0992569D01*
X0828398Y0992569D01*
X0825397Y0990568D01*
X0823396Y0990568D01*
X0820394Y0988567D01*
X0818393Y0987566D01*
X0816392Y0986566D01*
X0814391Y0985565D01*
X0811390Y0983564D01*
X0809389Y0982563D01*
X0806387Y0980562D01*
X0803386Y0978561D01*
X0799384Y0975559D01*
X0795382Y0972558D01*
X0778374Y0955548D01*
X0775373Y0951546D01*
X0772371Y0947543D01*
X0770370Y0944542D01*
X0768369Y0941540D01*
X0767369Y0939539D01*
X0765368Y0936537D01*
X0764367Y0934536D01*
X0763367Y0932535D01*
X0762366Y0930534D01*
X0761366Y0928532D01*
X0760365Y0926531D01*
X0760365Y0924530D01*
X0758364Y0921528D01*
X0757364Y0919527D01*
X0757364Y0917526D01*
X0756363Y0915525D01*
X0755363Y0913524D01*
X0755363Y0911523D01*
X0754362Y0909522D01*
X0754362Y0907520D01*
X0753362Y0905519D01*
X0753362Y0903518D01*
X0752361Y0901517D01*
X0752361Y0898515D01*
X0751361Y0896514D01*
X0751361Y0891511D01*
X0750361Y0889510D01*
X0750361Y0876503D01*
X0749360Y0874501D01*
X0750361Y0872500D01*
X0750361Y0859493D01*
X0751361Y0857492D01*
X0751361Y0852489D01*
X0752361Y0850488D01*
X0752361Y0847486D01*
X0753362Y0845485D01*
X0753362Y0843484D01*
X0754362Y0841483D01*
X0754362Y0839481D01*
X0755363Y0837480D01*
X0756363Y0835479D01*
X0756363Y0833478D01*
X0757364Y0831477D01*
X0758364Y0829476D01*
X0759365Y0827474D01*
X0760365Y0825473D01*
X0760365Y0823472D01*
X0762366Y0820470D01*
X0763367Y0818469D01*
X0764367Y0816468D01*
X0765368Y0814467D01*
X0767369Y0811465D01*
X0768369Y0809464D01*
X0770370Y0806462D01*
X0772371Y0803461D01*
X0774372Y0800459D01*
X0778374Y0795456D01*
X0795382Y0778446D01*
X0800385Y0774444D01*
X0803386Y0772443D01*
X0806387Y0770442D01*
X0809389Y0768441D01*
X0811390Y0767440D01*
X0814391Y0765439D01*
X0816392Y0764438D01*
X0818393Y0763438D01*
X0820394Y0762437D01*
X0822395Y0761437D01*
X0824396Y0760436D01*
X0826397Y0760436D01*
X0829398Y0758435D01*
X0831399Y0757434D01*
X0833400Y0757434D01*
X0835401Y0756434D01*
X0837402Y0755433D01*
X0839403Y0755433D01*
X0841404Y0754433D01*
X0843405Y0754433D01*
X0845406Y0753432D01*
X0847407Y0753432D01*
X0849408Y0752431D01*
X0852410Y0752431D01*
X0854411Y0751431D01*
X0859413Y0751431D01*
X0861414Y0750430D01*
X0874420Y0750430D01*
X0874420Y0749430D01*
X0874420Y0749430D01*
X1489716Y0194111D02*
X1491717Y0194111D01*
X1493718Y0195112D01*
X1502722Y0195112D01*
X1504723Y0196112D01*
X1507724Y0196112D01*
X1509725Y0197113D01*
X1511726Y0198114D01*
X1513727Y0198114D01*
X1516729Y0200115D01*
X1518730Y0200115D01*
X1521731Y0202116D01*
X1524733Y0204117D01*
X1526734Y0205118D01*
X1530735Y0208119D01*
X1542741Y0220126D01*
X1545743Y0224129D01*
X1546743Y0226130D01*
X1548744Y0229131D01*
X1549745Y0231133D01*
X1550745Y0233134D01*
X1550745Y0235135D01*
X1552746Y0238137D01*
X1552746Y0240138D01*
X1553747Y0242139D01*
X1553747Y0244140D01*
X1554747Y0246141D01*
X1554747Y0248142D01*
X1555747Y0250143D01*
X1555747Y0272156D01*
X1554747Y0274157D01*
X1554747Y0276158D01*
X1553747Y0278160D01*
X1553747Y0280161D01*
X1552746Y0282162D01*
X1551746Y0284163D01*
X1550745Y0286164D01*
X1550745Y0288165D01*
X1548744Y0291167D01*
X1546743Y0294169D01*
X1545743Y0296170D01*
X1542741Y0300172D01*
X1530735Y0312179D01*
X1526734Y0315181D01*
X1524733Y0316181D01*
X1521731Y0318182D01*
X1519730Y0319183D01*
X1517729Y0320184D01*
X1515728Y0320184D01*
X1512727Y0322185D01*
X1510726Y0322185D01*
X1508725Y0323185D01*
X1506724Y0323185D01*
X1504723Y0324186D01*
X1502722Y0324186D01*
X1500721Y0325186D01*
X1478710Y0325186D01*
X1476710Y0324186D01*
X1473708Y0324186D01*
X1471707Y0323185D01*
X1469706Y0322185D01*
X1467705Y0322185D01*
X1464704Y0320184D01*
X1462703Y0320184D01*
X1459701Y0318182D01*
X1457700Y0317182D01*
X1454699Y0315181D01*
X1451697Y0313180D01*
X1437691Y0299172D01*
X1435690Y0296170D01*
X1433689Y0293168D01*
X1432688Y0291167D01*
X1431688Y0289166D01*
X1430687Y0287165D01*
X1429687Y0285164D01*
X1429687Y0283162D01*
X1428686Y0281161D01*
X1427686Y0279160D01*
X1427686Y0277159D01*
X1426685Y0275158D01*
X1426685Y0272156D01*
X1425685Y0270155D01*
X1425685Y0261150D01*
X1424685Y0259149D01*
X1425685Y0257147D01*
X1425685Y0248142D01*
X1426685Y0246141D01*
X1426685Y0243139D01*
X1427686Y0241138D01*
X1428686Y0239137D01*
X1428686Y0237136D01*
X1429687Y0235135D01*
X1430687Y0233134D01*
X1431688Y0231133D01*
X1432688Y0229131D01*
X1433689Y0227130D01*
X1435690Y0224129D01*
X1437691Y0221127D01*
X1451697Y0207119D01*
X1454699Y0205118D01*
X1457700Y0203116D01*
X1459701Y0202116D01*
X1461702Y0201115D01*
X1463703Y0200115D01*
X1465704Y0199114D01*
X1467705Y0199114D01*
X1469706Y0198114D01*
X1471707Y0197113D01*
X1473708Y0197113D01*
X1475709Y0196112D01*
X1478710Y0196112D01*
X1480711Y0195112D01*
X1489716Y0195112D01*
X1489716Y0194111D01*
X1489716Y0194111D01*
X1489716Y1424817D02*
X1491717Y1424817D01*
X1493718Y1425818D01*
X1502722Y1425818D01*
X1504723Y1426818D01*
X1507724Y1426818D01*
X1509725Y1427819D01*
X1511726Y1428819D01*
X1513727Y1428819D01*
X1515728Y1429820D01*
X1517729Y1430820D01*
X1519730Y1431821D01*
X1521731Y1432822D01*
X1523732Y1433822D01*
X1526734Y1435823D01*
X1529735Y1437824D01*
X1543742Y1451833D01*
X1545743Y1454834D01*
X1546743Y1456835D01*
X1548744Y1459837D01*
X1549745Y1461838D01*
X1550745Y1463839D01*
X1550745Y1465841D01*
X1552746Y1468842D01*
X1552746Y1470843D01*
X1553747Y1472845D01*
X1553747Y1474846D01*
X1554747Y1476847D01*
X1554747Y1478848D01*
X1555747Y1480849D01*
X1555747Y1502862D01*
X1554747Y1504863D01*
X1554747Y1506864D01*
X1553747Y1508865D01*
X1553747Y1510866D01*
X1552746Y1512868D01*
X1551746Y1514869D01*
X1550745Y1516870D01*
X1550745Y1518871D01*
X1548744Y1521873D01*
X1546743Y1524874D01*
X1545743Y1526876D01*
X1542741Y1530878D01*
X1530735Y1542885D01*
X1526734Y1545886D01*
X1524733Y1546887D01*
X1521731Y1548888D01*
X1519730Y1549889D01*
X1517729Y1550889D01*
X1515728Y1550889D01*
X1512727Y1552890D01*
X1510726Y1552890D01*
X1508725Y1553891D01*
X1506724Y1553891D01*
X1504723Y1554892D01*
X1502722Y1554892D01*
X1500721Y1555892D01*
X1478710Y1555892D01*
X1476710Y1554892D01*
X1474709Y1554892D01*
X1472708Y1553891D01*
X1470707Y1553891D01*
X1468706Y1552890D01*
X1466705Y1551890D01*
X1464704Y1550889D01*
X1462703Y1550889D01*
X1459701Y1548888D01*
X1456700Y1546887D01*
X1454699Y1545886D01*
X1450697Y1542885D01*
X1437691Y1529877D01*
X1435690Y1526876D01*
X1434689Y1524874D01*
X1432688Y1521873D01*
X1431688Y1519872D01*
X1430687Y1517870D01*
X1429687Y1515869D01*
X1429687Y1513868D01*
X1428686Y1511867D01*
X1427686Y1509866D01*
X1427686Y1507865D01*
X1426685Y1505864D01*
X1426685Y1502862D01*
X1425685Y1500861D01*
X1425685Y1491855D01*
X1424685Y1489854D01*
X1425685Y1487853D01*
X1425685Y1478848D01*
X1426685Y1476847D01*
X1426685Y1473845D01*
X1427686Y1471844D01*
X1428686Y1469843D01*
X1428686Y1467842D01*
X1429687Y1465841D01*
X1430687Y1463839D01*
X1431688Y1461838D01*
X1432688Y1459837D01*
X1433689Y1457836D01*
X1435690Y1454834D01*
X1437691Y1451833D01*
X1451697Y1437824D01*
X1454699Y1435823D01*
X1457700Y1433822D01*
X1459701Y1432822D01*
X1461702Y1431821D01*
X1463703Y1430820D01*
X1465704Y1429820D01*
X1467705Y1429820D01*
X1469706Y1428819D01*
X1471707Y1427819D01*
X1473708Y1427819D01*
X1475709Y1426818D01*
X1478710Y1426818D01*
X1480711Y1425818D01*
X1489716Y1425818D01*
X1489716Y1424817D01*
X1489716Y1424817D01*
X0259125Y1424817D02*
X0261125Y1424817D01*
X0263126Y1425818D01*
X0272131Y1425818D01*
X0274132Y1426818D01*
X0277133Y1426818D01*
X0279134Y1427819D01*
X0281135Y1428819D01*
X0283136Y1428819D01*
X0285137Y1429820D01*
X0287138Y1430820D01*
X0289139Y1431821D01*
X0291140Y1432822D01*
X0293141Y1433822D01*
X0296142Y1435823D01*
X0299144Y1437824D01*
X0313150Y1451833D01*
X0315151Y1454834D01*
X0317152Y1457836D01*
X0318153Y1459837D01*
X0319153Y1461838D01*
X0320154Y1463839D01*
X0321154Y1465841D01*
X0321154Y1467842D01*
X0322155Y1469843D01*
X0323155Y1471844D01*
X0323155Y1473845D01*
X0324156Y1475846D01*
X0324156Y1478848D01*
X0325156Y1480849D01*
X0325156Y1502862D01*
X0324156Y1504863D01*
X0324156Y1506864D01*
X0323155Y1508865D01*
X0323155Y1510866D01*
X0322155Y1512868D01*
X0321154Y1514869D01*
X0320154Y1516870D01*
X0320154Y1518871D01*
X0318153Y1521873D01*
X0316152Y1524874D01*
X0315151Y1526876D01*
X0312150Y1530878D01*
X0300144Y1542885D01*
X0296142Y1545886D01*
X0294141Y1546887D01*
X0291140Y1548888D01*
X0289139Y1549889D01*
X0287138Y1550889D01*
X0285137Y1550889D01*
X0282136Y1552890D01*
X0280135Y1552890D01*
X0278134Y1553891D01*
X0276133Y1553891D01*
X0274132Y1554892D01*
X0272131Y1554892D01*
X0270130Y1555892D01*
X0248119Y1555892D01*
X0246118Y1554892D01*
X0244117Y1554892D01*
X0242116Y1553891D01*
X0240115Y1553891D01*
X0238114Y1552890D01*
X0236113Y1551890D01*
X0234112Y1550889D01*
X0232112Y1550889D01*
X0229110Y1548888D01*
X0226109Y1546887D01*
X0224108Y1545886D01*
X0220106Y1542885D01*
X0208100Y1530878D01*
X0205099Y1526876D01*
X0204098Y1524874D01*
X0202097Y1521873D01*
X0201097Y1519872D01*
X0200096Y1517870D01*
X0200096Y1515869D01*
X0198095Y1512868D01*
X0198095Y1510866D01*
X0197095Y1508865D01*
X0197095Y1506864D01*
X0196094Y1504863D01*
X0196094Y1502862D01*
X0195094Y1500861D01*
X0195094Y1491855D01*
X0194093Y1489854D01*
X0195094Y1487853D01*
X0195094Y1478848D01*
X0196094Y1476847D01*
X0196094Y1473845D01*
X0197095Y1471844D01*
X0198095Y1469843D01*
X0198095Y1467842D01*
X0199096Y1465841D01*
X0200096Y1463839D01*
X0201097Y1461838D01*
X0202097Y1459837D01*
X0203098Y1457836D01*
X0205099Y1454834D01*
X0207100Y1451833D01*
X0221106Y1437824D01*
X0224108Y1435823D01*
X0227109Y1433822D01*
X0229110Y1432822D01*
X0231111Y1431821D01*
X0233112Y1430820D01*
X0235113Y1429820D01*
X0237114Y1429820D01*
X0239115Y1428819D01*
X0241116Y1427819D01*
X0243117Y1427819D01*
X0245118Y1426818D01*
X0248119Y1426818D01*
X0250120Y1425818D01*
X0259125Y1425818D01*
X0259125Y1424817D01*
X0259125Y1424817D01*
M02*
