G04 #@! TF.GenerationSoftware,KiCad,Pcbnew,9.0.1*
G04 #@! TF.CreationDate,2025-05-04T10:10:28-04:00*
G04 #@! TF.ProjectId,hello.t1624-XU.0603,68656c6c-6f2e-4743-9136-32342d58552e,rev?*
G04 #@! TF.SameCoordinates,Original*
G04 #@! TF.FileFunction,Legend,Top*
G04 #@! TF.FilePolarity,Positive*
%FSLAX46Y46*%
G04 Gerber Fmt 4.6, Leading zero omitted, Abs format (unit mm)*
G04 Created by KiCad (PCBNEW 9.0.1) date 2025-05-04 10:10:28*
%MOMM*%
%LPD*%
G01*
G04 APERTURE LIST*
%ADD10C,0.254000*%
%ADD11C,0.120000*%
%ADD12C,0.200000*%
%ADD13R,1.700000X2.500000*%
%ADD14R,0.914400X0.889000*%
%ADD15R,1.000000X1.000000*%
%ADD16R,1.475000X0.450000*%
G04 APERTURE END LIST*
D10*
X94260237Y-89074318D02*
X94260237Y-87804318D01*
X95590714Y-88953365D02*
X95530238Y-89013842D01*
X95530238Y-89013842D02*
X95348809Y-89074318D01*
X95348809Y-89074318D02*
X95227857Y-89074318D01*
X95227857Y-89074318D02*
X95046428Y-89013842D01*
X95046428Y-89013842D02*
X94925476Y-88892889D01*
X94925476Y-88892889D02*
X94864999Y-88771937D01*
X94864999Y-88771937D02*
X94804523Y-88530032D01*
X94804523Y-88530032D02*
X94804523Y-88348603D01*
X94804523Y-88348603D02*
X94864999Y-88106699D01*
X94864999Y-88106699D02*
X94925476Y-87985746D01*
X94925476Y-87985746D02*
X95046428Y-87864794D01*
X95046428Y-87864794D02*
X95227857Y-87804318D01*
X95227857Y-87804318D02*
X95348809Y-87804318D01*
X95348809Y-87804318D02*
X95530238Y-87864794D01*
X95530238Y-87864794D02*
X95590714Y-87925270D01*
X96800238Y-89074318D02*
X96074523Y-89074318D01*
X96437380Y-89074318D02*
X96437380Y-87804318D01*
X96437380Y-87804318D02*
X96316428Y-87985746D01*
X96316428Y-87985746D02*
X96195476Y-88106699D01*
X96195476Y-88106699D02*
X96074523Y-88167175D01*
D11*
G04 #@! TO.C,J1*
X91700000Y-97510000D02*
X99320000Y-97510000D01*
X91700000Y-100050000D02*
X91700000Y-97510000D01*
X92716000Y-97510000D02*
X92716000Y-95200000D01*
X93224000Y-97510000D02*
X93224000Y-95200000D01*
X95256000Y-97510000D02*
X95256000Y-95200000D01*
X95764000Y-97510000D02*
X95764000Y-95200000D01*
X97796000Y-97510000D02*
X97796000Y-95200000D01*
X98304000Y-97510000D02*
X98304000Y-95200000D01*
X99320000Y-92430000D02*
X99320000Y-93700000D01*
X99320000Y-97510000D02*
X99320000Y-100050000D01*
X99320000Y-100050000D02*
X91700000Y-100050000D01*
D12*
G04 #@! TO.C,IC1*
X91825000Y-85975000D02*
X93300000Y-85975000D01*
X93650000Y-86000000D02*
X97350000Y-86000000D01*
X93650000Y-91000000D02*
X93650000Y-86000000D01*
X97350000Y-86000000D02*
X97350000Y-91000000D01*
X97350000Y-91000000D02*
X93650000Y-91000000D01*
G04 #@! TD*
%LPC*%
D13*
G04 #@! TO.C,J1*
X98050000Y-93700000D03*
X95510000Y-93700000D03*
X92970000Y-93700000D03*
G04 #@! TD*
D14*
G04 #@! TO.C,LED1*
X94249300Y-84500000D03*
X92750700Y-84500000D03*
G04 #@! TD*
D15*
G04 #@! TO.C,R1*
X98200000Y-84500000D03*
X96800000Y-84500000D03*
G04 #@! TD*
D16*
G04 #@! TO.C,IC1*
X92562000Y-86550000D03*
X92562000Y-87200000D03*
X92562000Y-87850000D03*
X92562000Y-88500000D03*
X92562000Y-89150000D03*
X92562000Y-89800000D03*
X92562000Y-90450000D03*
X98438000Y-90450000D03*
X98438000Y-89800000D03*
X98438000Y-89150000D03*
X98438000Y-88500000D03*
X98438000Y-87850000D03*
X98438000Y-87200000D03*
X98438000Y-86550000D03*
G04 #@! TD*
%LPD*%
M02*
