%MOIN*%
%LPD*%
%FSLAX66Y66*%
G01*
G36*
X0227152Y0292349D02*
X0227152Y0348416D01*
X0333223Y0348416D01*
X0333223Y0292349D01*
X0227152Y0292349D01*
X0227152Y0292349D01*
G37*
G36*
X0227152Y0391467D02*
X0227152Y0448536D01*
X0333223Y0448536D01*
X0333223Y0391467D01*
X0227152Y0391467D01*
X0227152Y0391467D01*
G37*
G36*
X0227152Y0492588D02*
X0227152Y0548655D01*
X0333223Y0548655D01*
X0333223Y0492588D01*
X0227152Y0492588D01*
X0227152Y0492588D01*
G37*
G36*
X0401268Y0553661D02*
X0401268Y0660789D01*
X0458307Y0660789D01*
X0458307Y0553661D01*
X0401268Y0553661D01*
X0401268Y0553661D01*
G37*
G36*
X0502336Y0553661D02*
X0502336Y0660789D01*
X0558374Y0660789D01*
X0558374Y0553661D01*
X0502336Y0553661D01*
X0502336Y0553661D01*
G37*
G36*
X0602403Y0576689D02*
X0602403Y0643769D01*
X0639428Y0643769D01*
X0639428Y0576689D01*
X0602403Y0576689D01*
X0602403Y0576689D01*
G37*
G36*
X0651436Y0576689D02*
X0651436Y0643769D01*
X0689461Y0643769D01*
X0689461Y0576689D01*
X0651436Y0576689D01*
X0651436Y0576689D01*
G37*
G36*
X0701469Y0576689D02*
X0701469Y0643769D01*
X0738494Y0643769D01*
X0738494Y0576689D01*
X0701469Y0576689D01*
X0701469Y0576689D01*
G37*
G36*
X0752504Y0576689D02*
X0752504Y0643769D01*
X0788528Y0643769D01*
X0788528Y0576689D01*
X0752504Y0576689D01*
X0752504Y0576689D01*
G37*
G36*
X0801536Y0576689D02*
X0801536Y0643769D01*
X0838561Y0643769D01*
X0838561Y0576689D01*
X0801536Y0576689D01*
X0801536Y0576689D01*
G37*
G36*
X0852570Y0576689D02*
X0852570Y0643769D01*
X0889595Y0643769D01*
X0889595Y0576689D01*
X0852570Y0576689D01*
X0852570Y0576689D01*
G37*
G36*
X0901603Y0576689D02*
X0901603Y0644770D01*
X0902604Y0646772D01*
X0902604Y0649776D01*
X0904605Y0652779D01*
X0908608Y0656784D01*
X0910609Y0657785D01*
X0912611Y0658787D01*
X0929622Y0658787D01*
X0932624Y0656784D01*
X0935626Y0653781D01*
X0937627Y0650777D01*
X0938628Y0648775D01*
X0938628Y0576689D01*
X0901603Y0576689D01*
X0901603Y0576689D01*
G37*
G36*
X1107741Y0535639D02*
X1107741Y0581694D01*
X1406941Y0581694D01*
X1406941Y0535639D01*
X1107741Y0535639D01*
X1107741Y0535639D01*
G37*
G36*
X1107741Y0436521D02*
X1107741Y0483577D01*
X1366915Y0483577D01*
X1366915Y0436521D01*
X1107741Y0436521D01*
X1107741Y0436521D01*
G37*
G36*
X1107741Y0357427D02*
X1107741Y0404483D01*
X1366915Y0404483D01*
X1366915Y0357427D01*
X1107741Y0357427D01*
X1107741Y0357427D01*
G37*
G36*
X1107741Y0259310D02*
X1107741Y0305365D01*
X1406941Y0305365D01*
X1406941Y0259310D01*
X1107741Y0259310D01*
X1107741Y0259310D01*
G37*
G36*
X0943631Y0234280D02*
X0943631Y0305365D01*
X1018682Y0305365D01*
X1018682Y0234280D01*
X0943631Y0234280D01*
X0943631Y0234280D01*
G37*
G36*
X0842564Y0234280D02*
X0842564Y0305365D01*
X0917614Y0305365D01*
X0917614Y0234280D01*
X0842564Y0234280D01*
X0842564Y0234280D01*
G37*
G36*
X0742497Y0194232D02*
X0742497Y0226270D01*
X0788528Y0226270D01*
X0788528Y0194232D01*
X0742497Y0194232D01*
X0742497Y0194232D01*
G37*
G36*
X0651436Y0157188D02*
X0651436Y0188225D01*
X0698467Y0188225D01*
X0698467Y0157188D01*
X0651436Y0157188D01*
X0651436Y0157188D01*
G37*
G36*
X0651436Y0232277D02*
X0651436Y0263314D01*
X0698467Y0263314D01*
X0698467Y0232277D01*
X0651436Y0232277D01*
X0651436Y0232277D01*
G37*
G36*
X0651436Y0357427D02*
X0651436Y0423506D01*
X0689461Y0423506D01*
X0689461Y0357427D01*
X0651436Y0357427D01*
X0651436Y0357427D01*
G37*
G36*
X0602403Y0357427D02*
X0602403Y0423506D01*
X0639428Y0423506D01*
X0639428Y0357427D01*
X0602403Y0357427D01*
X0602403Y0357427D01*
G37*
G36*
X0701469Y0357427D02*
X0701469Y0423506D01*
X0738494Y0423506D01*
X0738494Y0357427D01*
X0701469Y0357427D01*
X0701469Y0357427D01*
G37*
G36*
X0752504Y0357427D02*
X0752504Y0423506D01*
X0788528Y0423506D01*
X0788528Y0357427D01*
X0752504Y0357427D01*
X0752504Y0357427D01*
G37*
G36*
X0801536Y0357427D02*
X0801536Y0423506D01*
X0838561Y0423506D01*
X0838561Y0357427D01*
X0801536Y0357427D01*
X0801536Y0357427D01*
G37*
G36*
X0852570Y0357427D02*
X0852570Y0423506D01*
X0889595Y0423506D01*
X0889595Y0357427D01*
X0852570Y0357427D01*
X0852570Y0357427D01*
G37*
G36*
X0901603Y0357427D02*
X0901603Y0423506D01*
X0938628Y0423506D01*
X0938628Y0357427D01*
X0901603Y0357427D01*
X0901603Y0357427D01*
G37*
G36*
X0943631Y0114136D02*
X0943631Y0185221D01*
X1018682Y0185221D01*
X1018682Y0114136D01*
X0943631Y0114136D01*
X0943631Y0114136D01*
G37*
G36*
X0842564Y0114136D02*
X0842564Y0185221D01*
X0917614Y0185221D01*
X0917614Y0114136D01*
X0842564Y0114136D01*
X0842564Y0114136D01*
G37*
G36*
X0525352Y0173207D02*
X0525352Y0248296D01*
X0595398Y0248296D01*
X0595398Y0173207D01*
X0525352Y0173207D01*
X0525352Y0173207D01*
G37*
G36*
X0405271Y0173207D02*
X0405271Y0248296D01*
X0476319Y0248296D01*
X0476319Y0173207D01*
X0405271Y0173207D01*
X0405271Y0173207D01*
G37*
G36*
X0401268Y0339405D02*
X0401268Y0446533D01*
X0458307Y0446533D01*
X0458307Y0339405D01*
X0401268Y0339405D01*
X0401268Y0339405D01*
G37*
G36*
X0502336Y0339405D02*
X0502336Y0446533D01*
X0558374Y0446533D01*
X0558374Y0339405D01*
X0502336Y0339405D01*
X0502336Y0339405D01*
G37*
M02*
