<?xml version="1.0" encoding="ISO-8859-1" standalone="no"?>
<!-- Created with math_stl (kokompe.cba.mit.edu) -->
<!DOCTYPE svg PUBLIC "-//W3C//DTD SVG 20010904//EN"
    "http://www.w3.org/TR/2001/REC-SVG-20010904/DTD/svg10.dtd">
<svg 
    xmlns="http://www.w3.org/2000/svg"
    width="35.5385mm"
    height="35.5385mm"
    units="mm"
    viewBox="0 0 35.5385 35.5385">
<g style="stroke:rgb(0,0,0); stroke-width:0.0355385; fill:none">
  <path d="M28.1167 12.2308 L28.3108 12.5385 L28.3944 12.7692 L28.4386 13.2308 L28.2619 13.9231 L27.7084 14.7692 L26.7692 15.5924 L25.7692 16.1242 L24.6923 16.4001 L23.6923 16.3661 L22.8462 16.0527 L22.2165 15.5385 L21.8462 14.9626 L21.6923 14.4557 L21.7111 13.6923 L22 12.9995 L22.5398 12.3846 L23.4615 11.8081 L24.6923 11.4325 L26 11.3568 L27.0062 11.5385 L27.3998 11.6923 L28.0769 12.184 Z"/>
  <path d="M17.7692 6.29011 L15.0769 6.47551 L11.9231 6.97191 L9.38462 7.66662 L7.38462 8.51247 L5.92308 9.44066 L4.94096 10.3846 L4.33428 11.3077 L3.98032 12.3077 L3.88206 13.4615 L4.0909 14.7692 L4.4695 15.8462 L5.00195 16.9231 L5.46259 17.6923 L6.0915 18.6154 L6.85261 19.6154 L8.08789 21.0769 L8.85622 21.9231 L10.1759 23.3077 L11.1636 24.3077 L14.6561 27.7692 L15.6513 28.7692 L16.8601 30 L17.7692 30.9001 L18.3469 31.3846 L18.9231 31.6456 L19.5385 31.5059 L20.7692 30.4518 L28.2308 22.968 L30.7844 20.1538 L32.3096 18.1538 L32.6143 17.6923 L33.5404 16 L34.0446 14.5385 L34.1985 13.3077 L34.0769 12.2225 L33.8462 11.5305 L33.5385 10.9425 L33.3077 10.6032 L32.6923 9.9076 L32.1538 9.44066 L31.1538 8.76698 L30.2308 8.28441 L28.9231 7.74775 L28.2308 7.51487 L26.8462 7.13026 L24.0769 6.60802 L21.1538 6.32707 Z"/>
  <path d="M17.7692 28.6693 L17.1538 28.2228 L16.3077 27.4923 L15.2308 26.465 L14.0769 25.2997 L12.1538 23.2351 L11.1538 22.0774 L10.7692 21.6089 L12.9231 21.4998 L13.4286 22.1538 L13.9271 22.7692 L14.3911 23.3077 L16.0769 25.0206 L16.6916 25.5385 L17.4656 26.0769 L17.7692 26.2438 L18.6923 26.5509 L19.5385 26.523 L20.5385 26.1194 L21.7692 25.2231 L23.4788 23.5385 L25.1134 21.5385 L27.3077 21.4998 L27.3643 21.5385 L25.2308 23.9986 L22.3846 26.9145 L20.5385 28.5137 L19.5385 29.0398 L18.8462 29.1041 L18 28.8072 Z"/>
  <path d="M16.0771 13 L16.3256 13.5385 L16.404 14.3077 L16.1759 15.0769 L15.6288 15.7692 L14.9231 16.2045 L14.0769 16.41 L13.0769 16.352 L12 15.9902 L11.1538 15.4839 L10.4615 14.8721 L9.92308 14.1414 L9.6546 13.3846 L9.70538 12.6923 L10.1032 12.0769 L10.8541 11.6154 L12 11.3625 L13.0608 11.3846 L14.3846 11.7111 L14.9896 12 L15.7039 12.5385 Z"/>
</g>
</svg>