%MOIN*%
%LPD*%
%FSLAX66Y66*%
G01*
G36*
X0229110Y0698401D02*
X0229110Y0751431D01*
X0331159Y0751431D01*
X0331159Y0698401D01*
X0229110Y0698401D01*
X0229110Y0698401D01*
G37*
G36*
X0229110Y0798458D02*
X0229110Y0851489D01*
X0331159Y0851489D01*
X0331159Y0798458D01*
X0229110Y0798458D01*
X0229110Y0798458D01*
G37*
G36*
X0229110Y0898516D02*
X0229110Y0952547D01*
X0331159Y0952547D01*
X0331159Y0898516D01*
X0229110Y0898516D01*
X0229110Y0898516D01*
G37*
G36*
X0229110Y0999574D02*
X0229110Y1051603D01*
X0331159Y1051603D01*
X0331159Y0999574D01*
X0229110Y0999574D01*
X0229110Y0999574D01*
G37*
G36*
X0229110Y1188682D02*
X0229110Y1241712D01*
X0331159Y1241712D01*
X0331159Y1188682D01*
X0229110Y1188682D01*
X0229110Y1188682D01*
G37*
G36*
X0229110Y1288739D02*
X0229110Y1341770D01*
X0331159Y1341770D01*
X0331159Y1288739D01*
X0229110Y1288739D01*
X0229110Y1288739D01*
G37*
G36*
X0457220Y1208693D02*
X0457220Y1209694D01*
X0454218Y1212696D01*
X0454218Y1218699D01*
X0456219Y1220700D01*
X0458220Y1221701D01*
X0521251Y1221701D01*
X0521251Y1208693D01*
X0457220Y1208693D01*
X0457220Y1208693D01*
G37*
G36*
X0459221Y1182679D02*
X0459221Y1196687D01*
X0521251Y1196687D01*
X0521251Y1182679D01*
X0459221Y1182679D01*
X0459221Y1182679D01*
G37*
G36*
X0459221Y1157664D02*
X0459221Y1170672D01*
X0521251Y1170672D01*
X0521251Y1157664D01*
X0459221Y1157664D01*
X0459221Y1157664D01*
G37*
G36*
X0459221Y1131649D02*
X0459221Y1145657D01*
X0521251Y1145657D01*
X0521251Y1131649D01*
X0459221Y1131649D01*
X0459221Y1131649D01*
G37*
G36*
X0459221Y1105634D02*
X0459221Y1119642D01*
X0521251Y1119642D01*
X0521251Y1105634D01*
X0459221Y1105634D01*
X0459221Y1105634D01*
G37*
G36*
X0459221Y1080620D02*
X0459221Y1093627D01*
X0521251Y1093627D01*
X0521251Y1080620D01*
X0459221Y1080620D01*
X0459221Y1080620D01*
G37*
G36*
X0459221Y1054605D02*
X0459221Y1068613D01*
X0521251Y1068613D01*
X0521251Y1054605D01*
X0459221Y1054605D01*
X0459221Y1054605D01*
G37*
G36*
X0459221Y1029591D02*
X0459221Y1042598D01*
X0521251Y1042598D01*
X0521251Y1029591D01*
X0459221Y1029591D01*
X0459221Y1029591D01*
G37*
G36*
X0548264Y1033593D02*
X0548264Y1216698D01*
X0672323Y1216698D01*
X0672323Y1033593D01*
X0548264Y1033593D01*
X0548264Y1033593D01*
G37*
G36*
X0699336Y1029591D02*
X0699336Y1042598D01*
X0761366Y1042598D01*
X0761366Y1029591D01*
X0699336Y1029591D01*
X0699336Y1029591D01*
G37*
G36*
X0699336Y1054605D02*
X0699336Y1068613D01*
X0761366Y1068613D01*
X0761366Y1054605D01*
X0699336Y1054605D01*
X0699336Y1054605D01*
G37*
G36*
X0699336Y1080620D02*
X0699336Y1093627D01*
X0761366Y1093627D01*
X0761366Y1080620D01*
X0699336Y1080620D01*
X0699336Y1080620D01*
G37*
G36*
X0699336Y1105634D02*
X0699336Y1119642D01*
X0761366Y1119642D01*
X0761366Y1105634D01*
X0699336Y1105634D01*
X0699336Y1105634D01*
G37*
G36*
X0699336Y1131649D02*
X0699336Y1145657D01*
X0761366Y1145657D01*
X0761366Y1131649D01*
X0699336Y1131649D01*
X0699336Y1131649D01*
G37*
G36*
X0699336Y1157664D02*
X0699336Y1170672D01*
X0761366Y1170672D01*
X0761366Y1157664D01*
X0699336Y1157664D01*
X0699336Y1157664D01*
G37*
G36*
X0699336Y1182679D02*
X0699336Y1196687D01*
X0761366Y1196687D01*
X0761366Y1182679D01*
X0699336Y1182679D01*
X0699336Y1182679D01*
G37*
G36*
X0699336Y1208693D02*
X0699336Y1221701D01*
X0761366Y1221701D01*
X0761366Y1208693D01*
X0699336Y1208693D01*
X0699336Y1208693D01*
G37*
G36*
X0739355Y1361781D02*
X0739355Y1429820D01*
X0861414Y1429820D01*
X0861414Y1361781D01*
X0739355Y1361781D01*
X0739355Y1361781D01*
G37*
G36*
X0907436Y1359780D02*
X0907436Y1430821D01*
X0973468Y1430821D01*
X0973468Y1359780D01*
X0907436Y1359780D01*
X0907436Y1359780D01*
G37*
G36*
X1026493Y1359780D02*
X1026493Y1430821D01*
X1093526Y1430821D01*
X1093526Y1359780D01*
X1026493Y1359780D01*
X1026493Y1359780D01*
G37*
G36*
X1127542Y1359780D02*
X1127542Y1430821D01*
X1193574Y1430821D01*
X1193574Y1359780D01*
X1127542Y1359780D01*
X1127542Y1359780D01*
G37*
G36*
X1246599Y1359780D02*
X1246599Y1430821D01*
X1314632Y1430821D01*
X1314632Y1359780D01*
X1246599Y1359780D01*
X1246599Y1359780D01*
G37*
G36*
X1253603Y0953547D02*
X1253603Y1016583D01*
X1287619Y1016583D01*
X1287619Y0953547D01*
X1253603Y0953547D01*
X1253603Y0953547D01*
G37*
G36*
X1303627Y0953547D02*
X1303627Y1016583D01*
X1337643Y1016583D01*
X1337643Y0953547D01*
X1303627Y0953547D01*
X1303627Y0953547D01*
G37*
G36*
X1354651Y0953547D02*
X1354651Y1016583D01*
X1386667Y1016583D01*
X1386667Y0953547D01*
X1354651Y0953547D01*
X1354651Y0953547D01*
G37*
G36*
X1403675Y0953547D02*
X1403675Y1016583D01*
X1436691Y1016583D01*
X1436691Y0953547D01*
X1403675Y0953547D01*
X1403675Y0953547D01*
G37*
G36*
X1453699Y0953547D02*
X1453699Y1016583D01*
X1486715Y1016583D01*
X1486715Y0953547D01*
X1453699Y0953547D01*
X1453699Y0953547D01*
G37*
G36*
X1503723Y0953547D02*
X1503723Y1016583D01*
X1537739Y1016583D01*
X1537739Y0953547D01*
X1503723Y0953547D01*
X1503723Y0953547D01*
G37*
G36*
X1553747Y0953547D02*
X1553747Y1017584D01*
X1554747Y1019585D01*
X1554747Y1022587D01*
X1557749Y1026589D01*
X1559750Y1028590D01*
X1562751Y1030591D01*
X1564752Y1031592D01*
X1577758Y1031592D01*
X1581760Y1028590D01*
X1583761Y1026589D01*
X1585762Y1023587D01*
X1586763Y1021586D01*
X1586763Y0953547D01*
X1553747Y0953547D01*
X1553747Y0953547D01*
G37*
G36*
X1698817Y0917526D02*
X1698817Y0960551D01*
X1953939Y0960551D01*
X1953939Y0917526D01*
X1698817Y0917526D01*
X1698817Y0917526D01*
G37*
G36*
X1698817Y0839482D02*
X1698817Y0883507D01*
X1953939Y0883507D01*
X1953939Y0839482D01*
X1698817Y0839482D01*
X1698817Y0839482D01*
G37*
G36*
X1698817Y0740425D02*
X1698817Y0784450D01*
X1993958Y0784450D01*
X1993958Y0740425D01*
X1698817Y0740425D01*
X1698817Y0740425D01*
G37*
G36*
X1553747Y0733421D02*
X1553747Y0797458D01*
X1586763Y0797458D01*
X1586763Y0733421D01*
X1553747Y0733421D01*
X1553747Y0733421D01*
G37*
G36*
X1503723Y0733421D02*
X1503723Y0797458D01*
X1537739Y0797458D01*
X1537739Y0733421D01*
X1503723Y0733421D01*
X1503723Y0733421D01*
G37*
G36*
X1453699Y0733421D02*
X1453699Y0797458D01*
X1486715Y0797458D01*
X1486715Y0733421D01*
X1453699Y0733421D01*
X1453699Y0733421D01*
G37*
G36*
X1403675Y0733421D02*
X1403675Y0797458D01*
X1436691Y0797458D01*
X1436691Y0733421D01*
X1403675Y0733421D01*
X1403675Y0733421D01*
G37*
G36*
X1354651Y0733421D02*
X1354651Y0797458D01*
X1386667Y0797458D01*
X1386667Y0733421D01*
X1354651Y0733421D01*
X1354651Y0733421D01*
G37*
G36*
X1303627Y0733421D02*
X1303627Y0797458D01*
X1337643Y0797458D01*
X1337643Y0733421D01*
X1303627Y0733421D01*
X1303627Y0733421D01*
G37*
G36*
X1253603Y0733421D02*
X1253603Y0797458D01*
X1287619Y0797458D01*
X1287619Y0733421D01*
X1253603Y0733421D01*
X1253603Y0733421D01*
G37*
G36*
X1154555Y0716411D02*
X1154555Y0820471D01*
X1206580Y0820471D01*
X1206580Y0716411D01*
X1154555Y0716411D01*
X1154555Y0716411D01*
G37*
G36*
X1053506Y0716411D02*
X1053506Y0820471D01*
X1107532Y0820471D01*
X1107532Y0716411D01*
X1053506Y0716411D01*
X1053506Y0716411D01*
G37*
G36*
X1104531Y0579332D02*
X1104531Y0606348D01*
X1146551Y0606348D01*
X1146551Y0579332D01*
X1104531Y0579332D01*
X1104531Y0579332D01*
G37*
G36*
X1104531Y0504289D02*
X1104531Y0531305D01*
X1146551Y0531305D01*
X1146551Y0504289D01*
X1104531Y0504289D01*
X1104531Y0504289D01*
G37*
G36*
X1193574Y0542311D02*
X1193574Y0568326D01*
X1236594Y0568326D01*
X1236594Y0542311D01*
X1193574Y0542311D01*
X1193574Y0542311D01*
G37*
G36*
X1336643Y0549315D02*
X1336643Y0620356D01*
X1403675Y0620356D01*
X1403675Y0549315D01*
X1336643Y0549315D01*
X1336643Y0549315D01*
G37*
G36*
X1336643Y0459264D02*
X1336643Y0531305D01*
X1403675Y0531305D01*
X1403675Y0459264D01*
X1336643Y0459264D01*
X1336643Y0459264D01*
G37*
G36*
X1456700Y0459264D02*
X1456700Y0531305D01*
X1524733Y0531305D01*
X1524733Y0459264D01*
X1456700Y0459264D01*
X1456700Y0459264D01*
G37*
G36*
X1456700Y0549315D02*
X1456700Y0620356D01*
X1524733Y0620356D01*
X1524733Y0549315D01*
X1456700Y0549315D01*
X1456700Y0549315D01*
G37*
G36*
X0976469Y0519298D02*
X0976469Y0590339D01*
X1044502Y0590339D01*
X1044502Y0519298D01*
X0976469Y0519298D01*
X0976469Y0519298D01*
G37*
G36*
X0857412Y0519298D02*
X0857412Y0590339D01*
X0923444Y0590339D01*
X0923444Y0519298D01*
X0857412Y0519298D01*
X0857412Y0519298D01*
G37*
G36*
X0572275Y0617354D02*
X0572275Y0697400D01*
X0639307Y0697400D01*
X0639307Y0617354D01*
X0572275Y0617354D01*
X0572275Y0617354D01*
G37*
G36*
X0480231Y0617354D02*
X0480231Y0697400D01*
X0547263Y0697400D01*
X0547263Y0617354D01*
X0480231Y0617354D01*
X0480231Y0617354D01*
G37*
G36*
X0520250Y0499286D02*
X0520250Y0570327D01*
X0588283Y0570327D01*
X0588283Y0499286D01*
X0520250Y0499286D01*
X0520250Y0499286D01*
G37*
G36*
X0400192Y0499286D02*
X0400192Y0570327D01*
X0468225Y0570327D01*
X0468225Y0499286D01*
X0400192Y0499286D01*
X0400192Y0499286D01*
G37*
G36*
X0244117Y0471270D02*
X0244117Y0538309D01*
X0315151Y0538309D01*
X0315151Y0471270D01*
X0244117Y0471270D01*
X0244117Y0471270D01*
G37*
G36*
X0244117Y0591339D02*
X0244117Y0659378D01*
X0315151Y0659378D01*
X0315151Y0591339D01*
X0244117Y0591339D01*
X0244117Y0591339D01*
G37*
G36*
X0519250Y0852489D02*
X0519250Y0933536D01*
X0601289Y0933536D01*
X0601289Y0852489D01*
X0519250Y0852489D01*
X0519250Y0852489D01*
G37*
G36*
X0519250Y1361781D02*
X0519250Y1429820D01*
X0641308Y1429820D01*
X0641308Y1361781D01*
X0519250Y1361781D01*
X0519250Y1361781D01*
G37*
G36*
X1053506Y0930534D02*
X1053506Y1034594D01*
X1107532Y1034594D01*
X1107532Y0930534D01*
X1053506Y0930534D01*
X1053506Y0930534D01*
G37*
G36*
X1154555Y0930534D02*
X1154555Y1034594D01*
X1206580Y1034594D01*
X1206580Y0930534D01*
X1154555Y0930534D01*
X1154555Y0930534D01*
G37*
G36*
X1698817Y1016583D02*
X1698817Y1060609D01*
X1993958Y1060609D01*
X1993958Y1016583D01*
X1698817Y1016583D01*
X1698817Y1016583D01*
G37*
M02*
