%MOIN*%
%LPD*%
%FSLAX66Y66*%
G01*
G36*
X0376181Y0114065D02*
X0376181Y0166095D01*
X0383184Y0166095D01*
X0383184Y0114065D01*
X0376181Y0114065D01*
X0376181Y0114065D01*
G37*
G36*
X0399192Y0114065D02*
X0399192Y0139080D01*
X0398191Y0141081D01*
X0398191Y0143082D01*
X0394189Y0146084D01*
X0388187Y0146084D01*
X0386186Y0145083D01*
X0386186Y0149085D01*
X0388187Y0150086D01*
X0390187Y0151087D01*
X0393189Y0151087D01*
X0395190Y0152087D01*
X0397191Y0151087D01*
X0399192Y0151087D01*
X0401193Y0149085D01*
X0404194Y0146084D01*
X0405195Y0144083D01*
X0406195Y0142081D01*
X0406195Y0136078D01*
X0407196Y0134077D01*
X0407196Y0114065D01*
X0399192Y0114065D01*
X0399192Y0114065D01*
G37*
G36*
X0427205Y0130075D02*
X0427205Y0135077D01*
X0442212Y0135077D01*
X0442212Y0140080D01*
X0437210Y0145083D01*
X0435209Y0145083D01*
X0434209Y0147084D01*
X0434209Y0151087D01*
X0438211Y0151087D01*
X0441212Y0149085D01*
X0446214Y0144083D01*
X0448215Y0141081D01*
X0448215Y0139080D01*
X0449216Y0137079D01*
X0449216Y0135077D01*
X0450216Y0133076D01*
X0450216Y0131075D01*
X0448215Y0130075D01*
X0427205Y0130075D01*
X0427205Y0130075D01*
G37*
G36*
X0432208Y0113065D02*
X0432208Y0114065D01*
X0428206Y0114065D01*
X0426205Y0115066D01*
X0423203Y0117067D01*
X0420202Y0120069D01*
X0418201Y0123071D01*
X0417200Y0125072D01*
X0417200Y0127073D01*
X0416200Y0129074D01*
X0416200Y0138079D01*
X0417200Y0140080D01*
X0418201Y0142081D01*
X0420202Y0145083D01*
X0423203Y0148085D01*
X0426205Y0150086D01*
X0428206Y0151087D01*
X0431207Y0151087D01*
X0431207Y0146084D01*
X0429206Y0145083D01*
X0424204Y0140080D01*
X0424204Y0138079D01*
X0423203Y0136078D01*
X0423203Y0126072D01*
X0428206Y0121069D01*
X0430207Y0120069D01*
X0439211Y0120069D01*
X0442212Y0122070D01*
X0445214Y0119068D01*
X0443213Y0117067D01*
X0440212Y0115066D01*
X0438211Y0114065D01*
X0434209Y0114065D01*
X0432208Y0113065D01*
X0432208Y0113065D01*
G37*
G36*
X0469225Y0113065D02*
X0469225Y0114065D01*
X0466224Y0114065D01*
X0463223Y0118068D01*
X0462222Y0120069D01*
X0462222Y0124071D01*
X0461222Y0126072D01*
X0461222Y0165095D01*
X0463223Y0166095D01*
X0469225Y0166095D01*
X0469225Y0122070D01*
X0472227Y0119068D01*
X0474228Y0119068D01*
X0476229Y0118068D01*
X0477229Y0116067D01*
X0477229Y0114065D01*
X0475228Y0114065D01*
X0473227Y0113065D01*
X0469225Y0113065D01*
X0469225Y0113065D01*
G37*
G36*
X0493237Y0113065D02*
X0493237Y0114065D01*
X0490236Y0114065D01*
X0487234Y0118068D01*
X0486234Y0120069D01*
X0486234Y0124071D01*
X0485233Y0126072D01*
X0485233Y0165095D01*
X0487234Y0166095D01*
X0493237Y0166095D01*
X0493237Y0122070D01*
X0496238Y0119068D01*
X0498239Y0119068D01*
X0500240Y0118068D01*
X0501241Y0116067D01*
X0501241Y0114065D01*
X0499240Y0114065D01*
X0497239Y0113065D01*
X0493237Y0113065D01*
X0493237Y0113065D01*
G37*
G36*
X0520250Y0114065D02*
X0520250Y0115066D01*
X0518249Y0115066D01*
X0512246Y0121069D01*
X0511246Y0123071D01*
X0510245Y0125072D01*
X0509245Y0127073D01*
X0509245Y0139080D01*
X0511246Y0142081D01*
X0513247Y0145083D01*
X0516248Y0148085D01*
X0519249Y0150086D01*
X0521250Y0150086D01*
X0523251Y0151087D01*
X0524252Y0149085D01*
X0524252Y0145083D01*
X0521250Y0145083D01*
X0519249Y0142081D01*
X0518249Y0140080D01*
X0518249Y0138079D01*
X0517249Y0136078D01*
X0517249Y0127073D01*
X0518249Y0125072D01*
X0519249Y0123071D01*
X0522251Y0120069D01*
X0524252Y0120069D01*
X0524252Y0114065D01*
X0520250Y0114065D01*
X0520250Y0114065D01*
G37*
G36*
X0527253Y0114065D02*
X0527253Y0119068D01*
X0529254Y0120069D01*
X0533256Y0124071D01*
X0534257Y0126072D01*
X0534257Y0128073D01*
X0535257Y0130075D01*
X0535257Y0137079D01*
X0534257Y0139080D01*
X0533256Y0141081D01*
X0529254Y0145083D01*
X0527253Y0147084D01*
X0527253Y0151087D01*
X0532256Y0151087D01*
X0536258Y0148085D01*
X0539259Y0145083D01*
X0541260Y0142081D01*
X0541260Y0140080D01*
X0542261Y0138079D01*
X0543261Y0136078D01*
X0543261Y0128073D01*
X0542261Y0126072D01*
X0541260Y0124071D01*
X0541260Y0122070D01*
X0539259Y0120069D01*
X0536258Y0117067D01*
X0533256Y0115066D01*
X0531255Y0115066D01*
X0529254Y0114065D01*
X0527253Y0114065D01*
X0527253Y0114065D01*
G37*
G36*
X0553266Y0114065D02*
X0553266Y0115066D01*
X0551265Y0117067D01*
X0551265Y0120069D01*
X0554266Y0122070D01*
X0558268Y0122070D01*
X0560269Y0119068D01*
X0560269Y0116067D01*
X0557268Y0114065D01*
X0553266Y0114065D01*
X0553266Y0114065D01*
G37*
G36*
X0569274Y0114065D02*
X0569274Y0163094D01*
X0577277Y0163094D01*
X0577277Y0114065D01*
X0569274Y0114065D01*
X0569274Y0114065D01*
G37*
G36*
X0580279Y0114065D02*
X0580279Y0119068D01*
X0589283Y0119068D01*
X0591284Y0120069D01*
X0593285Y0120069D01*
X0595286Y0122070D01*
X0597287Y0124071D01*
X0598287Y0126072D01*
X0599288Y0128073D01*
X0600288Y0130075D01*
X0600288Y0134077D01*
X0601289Y0136078D01*
X0601289Y0144083D01*
X0600288Y0146084D01*
X0600288Y0148085D01*
X0598287Y0151087D01*
X0595286Y0154088D01*
X0593285Y0155089D01*
X0591284Y0156090D01*
X0589283Y0156090D01*
X0587282Y0157090D01*
X0580279Y0157090D01*
X0580279Y0163094D01*
X0589283Y0163094D01*
X0591284Y0162093D01*
X0593285Y0162093D01*
X0596286Y0160092D01*
X0598287Y0159091D01*
X0602289Y0156090D01*
X0606291Y0151087D01*
X0607292Y0149085D01*
X0607292Y0147084D01*
X0608292Y0145083D01*
X0608292Y0143082D01*
X0609293Y0141081D01*
X0609293Y0134077D01*
X0608292Y0132076D01*
X0608292Y0130075D01*
X0607292Y0128073D01*
X0606291Y0126072D01*
X0605291Y0124071D01*
X0603290Y0121069D01*
X0600288Y0118068D01*
X0597287Y0116067D01*
X0595286Y0115066D01*
X0593285Y0115066D01*
X0591284Y0114065D01*
X0580279Y0114065D01*
X0580279Y0114065D01*
G37*
G36*
X0621299Y0114065D02*
X0621299Y0163094D01*
X0628302Y0163094D01*
X0628302Y0114065D01*
X0621299Y0114065D01*
X0621299Y0114065D01*
G37*
G36*
X0646311Y0114065D02*
X0646311Y0115066D01*
X0644310Y0118068D01*
X0643309Y0120069D01*
X0641308Y0123071D01*
X0640308Y0125072D01*
X0639307Y0127073D01*
X0638307Y0129074D01*
X0637306Y0131075D01*
X0635305Y0132076D01*
X0632304Y0132076D01*
X0632304Y0137079D01*
X0639307Y0137079D01*
X0643309Y0141081D01*
X0644310Y0143082D01*
X0644310Y0146084D01*
X0645310Y0148085D01*
X0644310Y0150086D01*
X0644310Y0153088D01*
X0639307Y0157090D01*
X0632304Y0157090D01*
X0632304Y0163094D01*
X0638307Y0163094D01*
X0640308Y0162093D01*
X0642309Y0162093D01*
X0646311Y0159091D01*
X0649312Y0156090D01*
X0651313Y0153088D01*
X0651313Y0151087D01*
X0652313Y0149085D01*
X0652313Y0144083D01*
X0651313Y0142081D01*
X0650312Y0140080D01*
X0644310Y0134077D01*
X0643309Y0132076D01*
X0644310Y0130075D01*
X0646311Y0127073D01*
X0647311Y0125072D01*
X0649312Y0122070D01*
X0650312Y0120069D01*
X0651313Y0118068D01*
X0653314Y0115066D01*
X0651313Y0114065D01*
X0646311Y0114065D01*
X0646311Y0114065D01*
G37*
G36*
X0679326Y0113065D02*
X0679326Y0114065D01*
X0677325Y0117067D01*
X0677325Y0119068D01*
X0676325Y0121069D01*
X0675324Y0123071D01*
X0675324Y0126072D01*
X0674324Y0128073D01*
X0673324Y0130075D01*
X0673324Y0132076D01*
X0672323Y0134077D01*
X0671323Y0136078D01*
X0671323Y0139080D01*
X0670322Y0141081D01*
X0669322Y0143082D01*
X0669322Y0145083D01*
X0668321Y0147084D01*
X0667321Y0149085D01*
X0667321Y0152087D01*
X0666320Y0154088D01*
X0665320Y0156090D01*
X0665320Y0158091D01*
X0664319Y0160092D01*
X0663319Y0162093D01*
X0665320Y0163094D01*
X0672323Y0163094D01*
X0672323Y0159091D01*
X0673324Y0157090D01*
X0673324Y0155089D01*
X0674324Y0153088D01*
X0675324Y0151087D01*
X0675324Y0148085D01*
X0676325Y0146084D01*
X0676325Y0144083D01*
X0677325Y0142081D01*
X0678326Y0140080D01*
X0678326Y0137079D01*
X0679326Y0135077D01*
X0679326Y0133076D01*
X0680327Y0131075D01*
X0680327Y0129074D01*
X0681327Y0127073D01*
X0682328Y0125072D01*
X0682328Y0114065D01*
X0680327Y0113065D01*
X0679326Y0113065D01*
X0679326Y0113065D01*
G37*
G36*
X0686330Y0113065D02*
X0686330Y0114065D01*
X0685329Y0116067D01*
X0685329Y0127073D01*
X0686330Y0129074D01*
X0687330Y0131075D01*
X0687330Y0134077D01*
X0688331Y0136078D01*
X0689331Y0138079D01*
X0689331Y0141081D01*
X0690332Y0143082D01*
X0691332Y0145083D01*
X0691332Y0148085D01*
X0692333Y0150086D01*
X0693333Y0152087D01*
X0693333Y0155089D01*
X0694334Y0157090D01*
X0695334Y0159091D01*
X0695334Y0162093D01*
X0697335Y0163094D01*
X0704338Y0163094D01*
X0704338Y0161092D01*
X0703338Y0159091D01*
X0702337Y0157090D01*
X0702337Y0155089D01*
X0701337Y0153088D01*
X0701337Y0151087D01*
X0700336Y0149085D01*
X0699336Y0147084D01*
X0699336Y0145083D01*
X0698336Y0143082D01*
X0697335Y0141081D01*
X0697335Y0139080D01*
X0696335Y0137079D01*
X0695334Y0135077D01*
X0695334Y0133076D01*
X0694334Y0131075D01*
X0693333Y0129074D01*
X0693333Y0127073D01*
X0692333Y0125072D01*
X0691332Y0123071D01*
X0691332Y0121069D01*
X0690332Y0119068D01*
X0689331Y0117067D01*
X0689331Y0114065D01*
X0687330Y0113065D01*
X0686330Y0113065D01*
X0686330Y0113065D01*
G37*
G36*
X0725349Y0113065D02*
X0725349Y0114065D01*
X0722347Y0114065D01*
X0719346Y0116067D01*
X0716344Y0119068D01*
X0715344Y0121069D01*
X0714343Y0123071D01*
X0714343Y0131075D01*
X0715344Y0133076D01*
X0721347Y0139080D01*
X0722347Y0141081D01*
X0720346Y0142081D01*
X0718345Y0144083D01*
X0716344Y0147084D01*
X0715344Y0149085D01*
X0715344Y0153088D01*
X0716344Y0155089D01*
X0717345Y0157090D01*
X0721347Y0161092D01*
X0723348Y0162093D01*
X0725349Y0162093D01*
X0727349Y0163094D01*
X0727349Y0157090D01*
X0725349Y0157090D01*
X0723348Y0155089D01*
X0722347Y0153088D01*
X0722347Y0148085D01*
X0727349Y0143082D01*
X0727349Y0137079D01*
X0725349Y0136078D01*
X0723348Y0134077D01*
X0721347Y0131075D01*
X0721347Y0129074D01*
X0720346Y0127073D01*
X0720346Y0125072D01*
X0721347Y0123071D01*
X0723348Y0121069D01*
X0725349Y0120069D01*
X0727349Y0118068D01*
X0727349Y0113065D01*
X0725349Y0113065D01*
X0725349Y0113065D01*
G37*
G36*
X0731351Y0113065D02*
X0731351Y0119068D01*
X0733352Y0119068D01*
X0737354Y0123071D01*
X0738355Y0125072D01*
X0738355Y0127073D01*
X0737354Y0129074D01*
X0733352Y0133076D01*
X0731351Y0135077D01*
X0731351Y0142081D01*
X0735353Y0146084D01*
X0736354Y0148085D01*
X0736354Y0155089D01*
X0733352Y0157090D01*
X0731351Y0157090D01*
X0731351Y0163094D01*
X0734353Y0163094D01*
X0736354Y0162093D01*
X0741356Y0157090D01*
X0742357Y0155089D01*
X0742357Y0147084D01*
X0740356Y0145083D01*
X0736354Y0140080D01*
X0736354Y0138079D01*
X0738355Y0138079D01*
X0743357Y0132076D01*
X0744358Y0130075D01*
X0744358Y0122070D01*
X0737354Y0115066D01*
X0735353Y0114065D01*
X0733352Y0114065D01*
X0731351Y0113065D01*
X0731351Y0113065D01*
G37*
G36*
X0753362Y0125072D02*
X0753362Y0126072D01*
X0752361Y0128073D01*
X0752361Y0131075D01*
X0755363Y0135077D01*
X0757364Y0138079D01*
X0759365Y0141081D01*
X0761366Y0144083D01*
X0763367Y0147084D01*
X0765368Y0150086D01*
X0768369Y0154088D01*
X0770370Y0156090D01*
X0771371Y0154088D01*
X0771371Y0150086D01*
X0768369Y0146084D01*
X0766368Y0143082D01*
X0765368Y0141081D01*
X0763367Y0138079D01*
X0761366Y0135077D01*
X0759365Y0132076D01*
X0761366Y0131075D01*
X0771371Y0131075D01*
X0771371Y0126072D01*
X0769370Y0125072D01*
X0753362Y0125072D01*
X0753362Y0125072D01*
G37*
G36*
X0774372Y0114065D02*
X0774372Y0163094D01*
X0781375Y0163094D01*
X0782376Y0161092D01*
X0782376Y0131075D01*
X0787378Y0131075D01*
X0787378Y0126072D01*
X0785377Y0125072D01*
X0782376Y0125072D01*
X0782376Y0114065D01*
X0774372Y0114065D01*
X0774372Y0114065D01*
G37*
G36*
X0798384Y0114065D02*
X0798384Y0121069D01*
X0811390Y0133076D01*
X0816392Y0139080D01*
X0818393Y0142081D01*
X0819394Y0144083D01*
X0819394Y0146084D01*
X0820394Y0148085D01*
X0820394Y0151087D01*
X0818393Y0154088D01*
X0815392Y0156090D01*
X0813391Y0157090D01*
X0804386Y0157090D01*
X0802386Y0156090D01*
X0800385Y0155089D01*
X0798384Y0157090D01*
X0798384Y0160092D01*
X0800385Y0160092D01*
X0803386Y0162093D01*
X0806387Y0162093D01*
X0808388Y0163094D01*
X0816392Y0163094D01*
X0818393Y0162093D01*
X0821395Y0160092D01*
X0824396Y0157090D01*
X0826397Y0154088D01*
X0826397Y0152087D01*
X0827398Y0150086D01*
X0827398Y0145083D01*
X0826397Y0143082D01*
X0825397Y0141081D01*
X0823396Y0138079D01*
X0821395Y0135077D01*
X0808388Y0120069D01*
X0828398Y0120069D01*
X0828398Y0114065D01*
X0798384Y0114065D01*
X0798384Y0114065D01*
G37*
G36*
X0849408Y0113065D02*
X0849408Y0114065D01*
X0846407Y0114065D01*
X0843405Y0116067D01*
X0840404Y0119068D01*
X0839403Y0121069D01*
X0838403Y0123071D01*
X0838403Y0131075D01*
X0839403Y0133076D01*
X0845406Y0139080D01*
X0846407Y0141081D01*
X0844406Y0142081D01*
X0842405Y0144083D01*
X0840404Y0147084D01*
X0839403Y0149085D01*
X0839403Y0153088D01*
X0840404Y0155089D01*
X0841404Y0157090D01*
X0845406Y0161092D01*
X0847407Y0162093D01*
X0849408Y0162093D01*
X0851409Y0163094D01*
X0851409Y0157090D01*
X0849408Y0157090D01*
X0847407Y0155089D01*
X0846407Y0153088D01*
X0846407Y0148085D01*
X0851409Y0143082D01*
X0851409Y0137079D01*
X0849408Y0136078D01*
X0847407Y0134077D01*
X0845406Y0131075D01*
X0845406Y0129074D01*
X0844406Y0127073D01*
X0844406Y0125072D01*
X0845406Y0123071D01*
X0847407Y0121069D01*
X0849408Y0120069D01*
X0851409Y0118068D01*
X0851409Y0113065D01*
X0849408Y0113065D01*
X0849408Y0113065D01*
G37*
G36*
X0855411Y0113065D02*
X0855411Y0119068D01*
X0857412Y0119068D01*
X0861414Y0123071D01*
X0862414Y0125072D01*
X0862414Y0127073D01*
X0861414Y0129074D01*
X0857412Y0133076D01*
X0855411Y0135077D01*
X0855411Y0142081D01*
X0859413Y0146084D01*
X0860413Y0148085D01*
X0860413Y0155089D01*
X0857412Y0157090D01*
X0855411Y0157090D01*
X0855411Y0163094D01*
X0858412Y0163094D01*
X0860413Y0162093D01*
X0865416Y0157090D01*
X0866416Y0155089D01*
X0866416Y0147084D01*
X0864415Y0145083D01*
X0860413Y0140080D01*
X0860413Y0138079D01*
X0862414Y0138079D01*
X0867417Y0132076D01*
X0868417Y0130075D01*
X0868417Y0122070D01*
X0861414Y0115066D01*
X0859413Y0114065D01*
X0857412Y0114065D01*
X0855411Y0113065D01*
X0855411Y0113065D01*
G37*
G36*
X0880423Y0130075D02*
X0880423Y0136078D01*
X0901433Y0136078D01*
X0901433Y0131075D01*
X0899432Y0130075D01*
X0880423Y0130075D01*
X0880423Y0130075D01*
G37*
G36*
X0913439Y0114065D02*
X0913439Y0163094D01*
X0921443Y0163094D01*
X0921443Y0114065D01*
X0913439Y0114065D01*
X0913439Y0114065D01*
G37*
G36*
X0924444Y0114065D02*
X0924444Y0119068D01*
X0933448Y0119068D01*
X0935449Y0120069D01*
X0937450Y0120069D01*
X0939451Y0122070D01*
X0941452Y0124071D01*
X0942453Y0126072D01*
X0943453Y0128073D01*
X0944454Y0130075D01*
X0944454Y0134077D01*
X0945454Y0136078D01*
X0945454Y0144083D01*
X0944454Y0146084D01*
X0944454Y0148085D01*
X0942453Y0151087D01*
X0939451Y0154088D01*
X0937450Y0155089D01*
X0935449Y0156090D01*
X0933448Y0156090D01*
X0931448Y0157090D01*
X0924444Y0157090D01*
X0924444Y0163094D01*
X0933448Y0163094D01*
X0935449Y0162093D01*
X0937450Y0162093D01*
X0940452Y0160092D01*
X0942453Y0159091D01*
X0946455Y0156090D01*
X0950457Y0151087D01*
X0951457Y0149085D01*
X0951457Y0147084D01*
X0952458Y0145083D01*
X0952458Y0143082D01*
X0953458Y0141081D01*
X0953458Y0134077D01*
X0952458Y0132076D01*
X0952458Y0130075D01*
X0951457Y0128073D01*
X0950457Y0126072D01*
X0949456Y0124071D01*
X0947455Y0121069D01*
X0944454Y0118068D01*
X0941452Y0116067D01*
X0939451Y0115066D01*
X0937450Y0115066D01*
X0935449Y0114065D01*
X0924444Y0114065D01*
X0924444Y0114065D01*
G37*
G36*
X0973468Y0114065D02*
X0973468Y0151087D01*
X0971467Y0151087D01*
X0966464Y0146084D01*
X0962462Y0150086D01*
X0962462Y0152087D01*
X0975469Y0163094D01*
X0981472Y0163094D01*
X0981472Y0114065D01*
X0973468Y0114065D01*
X0973468Y0114065D01*
G37*
G36*
X1001481Y0114065D02*
X1001481Y0151087D01*
X0999480Y0151087D01*
X0994478Y0146084D01*
X0990476Y0150086D01*
X0990476Y0152087D01*
X1003482Y0163094D01*
X1009485Y0163094D01*
X1009485Y0114065D01*
X1001481Y0114065D01*
X1001481Y0114065D01*
G37*
G36*
X1034497Y0114065D02*
X1034497Y0115066D01*
X1032496Y0115066D01*
X1028494Y0118068D01*
X1026493Y0120069D01*
X1024492Y0123071D01*
X1023492Y0125072D01*
X1022491Y0127073D01*
X1021491Y0129074D01*
X1021491Y0133076D01*
X1020490Y0135077D01*
X1020490Y0144083D01*
X1021491Y0146084D01*
X1021491Y0149085D01*
X1023492Y0152087D01*
X1024492Y0154088D01*
X1026493Y0157090D01*
X1028494Y0159091D01*
X1031496Y0161092D01*
X1033497Y0162093D01*
X1035498Y0163094D01*
X1039499Y0163094D01*
X1039499Y0158091D01*
X1037498Y0157090D01*
X1035498Y0156090D01*
X1030495Y0151087D01*
X1029495Y0149085D01*
X1029495Y0146084D01*
X1028494Y0144083D01*
X1028494Y0131075D01*
X1029495Y0129074D01*
X1030495Y0127073D01*
X1030495Y0125072D01*
X1036498Y0120069D01*
X1038499Y0120069D01*
X1039499Y0118068D01*
X1039499Y0114065D01*
X1034497Y0114065D01*
X1034497Y0114065D01*
G37*
G36*
X1042501Y0114065D02*
X1042501Y0120069D01*
X1045502Y0120069D01*
X1048504Y0122070D01*
X1050505Y0122070D01*
X1052506Y0120069D01*
X1053506Y0118068D01*
X1050505Y0116067D01*
X1048504Y0115066D01*
X1046503Y0114065D01*
X1042501Y0114065D01*
X1042501Y0114065D01*
G37*
G36*
X1066512Y0130075D02*
X1066512Y0136078D01*
X1087523Y0136078D01*
X1087523Y0131075D01*
X1085522Y0130075D01*
X1066512Y0130075D01*
X1066512Y0130075D01*
G37*
G36*
X1047503Y0155089D02*
X1047503Y0156090D01*
X1045502Y0157090D01*
X1042501Y0157090D01*
X1042501Y0163094D01*
X1047503Y0163094D01*
X1049504Y0162093D01*
X1052506Y0160092D01*
X1053506Y0158091D01*
X1049504Y0155089D01*
X1047503Y0155089D01*
X1047503Y0155089D01*
G37*
G36*
X1099528Y0114065D02*
X1099528Y0163094D01*
X1107532Y0163094D01*
X1107532Y0114065D01*
X1099528Y0114065D01*
X1099528Y0114065D01*
G37*
G36*
X1126541Y0114065D02*
X1126541Y0116067D01*
X1123540Y0120069D01*
X1122539Y0122070D01*
X1121539Y0124071D01*
X1119538Y0127073D01*
X1118537Y0129074D01*
X1117537Y0131075D01*
X1116536Y0133076D01*
X1114535Y0136078D01*
X1113535Y0138079D01*
X1112535Y0140080D01*
X1110534Y0143082D01*
X1110534Y0154088D01*
X1112535Y0154088D01*
X1113535Y0152087D01*
X1114535Y0150086D01*
X1115536Y0148085D01*
X1116536Y0146084D01*
X1118537Y0143082D01*
X1119538Y0141081D01*
X1120538Y0139080D01*
X1122539Y0136078D01*
X1123540Y0134077D01*
X1124540Y0132076D01*
X1126541Y0130075D01*
X1127542Y0132076D01*
X1127542Y0163094D01*
X1134545Y0163094D01*
X1134545Y0114065D01*
X1126541Y0114065D01*
X1126541Y0114065D01*
G37*
G36*
X1147551Y0114065D02*
X1147551Y0163094D01*
X1155555Y0163094D01*
X1155555Y0114065D01*
X1147551Y0114065D01*
X1147551Y0114065D01*
G37*
G36*
X1158557Y0114065D02*
X1158557Y0119068D01*
X1178566Y0119068D01*
X1178566Y0114065D01*
X1158557Y0114065D01*
X1158557Y0114065D01*
G37*
G36*
X1158557Y0136078D02*
X1158557Y0141081D01*
X1176565Y0141081D01*
X1176565Y0136078D01*
X1158557Y0136078D01*
X1158557Y0136078D01*
G37*
G36*
X1158557Y0157090D02*
X1158557Y0163094D01*
X1178566Y0163094D01*
X1178566Y0157090D01*
X1158557Y0157090D01*
X1158557Y0157090D01*
G37*
G36*
X1189572Y0114065D02*
X1189572Y0163094D01*
X1197575Y0163094D01*
X1197575Y0161092D01*
X1199576Y0158091D01*
X1199576Y0156090D01*
X1201577Y0153088D01*
X1202578Y0151087D01*
X1202578Y0149085D01*
X1204579Y0146084D01*
X1205579Y0144083D01*
X1205579Y0142081D01*
X1207580Y0139080D01*
X1208581Y0137079D01*
X1209581Y0135077D01*
X1209581Y0133076D01*
X1210582Y0131075D01*
X1210582Y0120069D01*
X1208581Y0120069D01*
X1208581Y0123071D01*
X1206580Y0126072D01*
X1205579Y0128073D01*
X1205579Y0130075D01*
X1203578Y0133076D01*
X1203578Y0135077D01*
X1201577Y0138079D01*
X1201577Y0140080D01*
X1199576Y0143082D01*
X1199576Y0145083D01*
X1197575Y0145083D01*
X1197575Y0114065D01*
X1189572Y0114065D01*
X1189572Y0114065D01*
G37*
G36*
X1227590Y0114065D02*
X1227590Y0146084D01*
X1225589Y0146084D01*
X1225589Y0144083D01*
X1223588Y0141081D01*
X1223588Y0139080D01*
X1221587Y0136078D01*
X1221587Y0134077D01*
X1219586Y0131075D01*
X1219586Y0129074D01*
X1217585Y0126072D01*
X1217585Y0124071D01*
X1215584Y0121069D01*
X1213583Y0120069D01*
X1213583Y0132076D01*
X1214584Y0134077D01*
X1215584Y0136078D01*
X1216585Y0138079D01*
X1217585Y0140080D01*
X1217585Y0142081D01*
X1219586Y0145083D01*
X1220586Y0147084D01*
X1220586Y0149085D01*
X1222587Y0152087D01*
X1223588Y0154088D01*
X1223588Y0156090D01*
X1225589Y0159091D01*
X1226589Y0161092D01*
X1228590Y0163094D01*
X1234593Y0163094D01*
X1234593Y0114065D01*
X1227590Y0114065D01*
X1227590Y0114065D01*
G37*
G36*
X1246599Y0114065D02*
X1246599Y0117067D01*
X1247599Y0119068D01*
X1248600Y0121069D01*
X1248600Y0123071D01*
X1249600Y0125072D01*
X1250601Y0127073D01*
X1250601Y0129074D01*
X1251601Y0131075D01*
X1252602Y0133076D01*
X1252602Y0135077D01*
X1254603Y0138079D01*
X1254603Y0140080D01*
X1255603Y0142081D01*
X1256604Y0144083D01*
X1256604Y0146084D01*
X1257604Y0148085D01*
X1258605Y0150086D01*
X1258605Y0152087D01*
X1260606Y0155089D01*
X1260606Y0157090D01*
X1261606Y0159091D01*
X1262607Y0161092D01*
X1262607Y0163094D01*
X1270610Y0163094D01*
X1270610Y0161092D01*
X1271611Y0159091D01*
X1272611Y0157090D01*
X1272611Y0155089D01*
X1273612Y0153088D01*
X1274612Y0151087D01*
X1274612Y0149085D01*
X1276613Y0146084D01*
X1276613Y0144083D01*
X1277614Y0142081D01*
X1278614Y0140080D01*
X1278614Y0138079D01*
X1279615Y0136078D01*
X1280615Y0134077D01*
X1280615Y0132076D01*
X1281616Y0130075D01*
X1282616Y0128073D01*
X1282616Y0126072D01*
X1284617Y0123071D01*
X1284617Y0121069D01*
X1285618Y0119068D01*
X1286618Y0117067D01*
X1286618Y0114065D01*
X1279615Y0114065D01*
X1279615Y0116067D01*
X1278614Y0118068D01*
X1277614Y0120069D01*
X1277614Y0122070D01*
X1276613Y0124071D01*
X1275613Y0126072D01*
X1275613Y0128073D01*
X1274612Y0130075D01*
X1273612Y0132076D01*
X1273612Y0134077D01*
X1271611Y0137079D01*
X1271611Y0139080D01*
X1270610Y0141081D01*
X1269610Y0143082D01*
X1269610Y0145083D01*
X1268610Y0147084D01*
X1267609Y0149085D01*
X1265608Y0150086D01*
X1265608Y0147084D01*
X1264608Y0145083D01*
X1263607Y0143082D01*
X1263607Y0141081D01*
X1262607Y0139080D01*
X1261606Y0137079D01*
X1260606Y0135077D01*
X1260606Y0133076D01*
X1259605Y0131075D01*
X1258605Y0129074D01*
X1258605Y0127073D01*
X1257604Y0125072D01*
X1256604Y0123071D01*
X1256604Y0121069D01*
X1255603Y0119068D01*
X1254603Y0117067D01*
X1253602Y0115066D01*
X1251601Y0114065D01*
X1246599Y0114065D01*
X1246599Y0114065D01*
G37*
G36*
X1261606Y0124071D02*
X1261606Y0128073D01*
X1263607Y0129074D01*
X1270610Y0129074D01*
X1271611Y0127073D01*
X1272611Y0125072D01*
X1270610Y0124071D01*
X1261606Y0124071D01*
X1261606Y0124071D01*
G37*
G36*
X1306628Y0114065D02*
X1306628Y0151087D01*
X1304627Y0151087D01*
X1299624Y0146084D01*
X1295623Y0150086D01*
X1295623Y0152087D01*
X1308629Y0163094D01*
X1314632Y0163094D01*
X1314632Y0114065D01*
X1306628Y0114065D01*
X1306628Y0114065D01*
G37*
G36*
X1329639Y0114065D02*
X1329639Y0116067D01*
X1331640Y0119068D01*
X1331640Y0121069D01*
X1333641Y0124071D01*
X1333641Y0126072D01*
X1335642Y0129074D01*
X1335642Y0131075D01*
X1337643Y0134077D01*
X1337643Y0136078D01*
X1339644Y0139080D01*
X1339644Y0141081D01*
X1341645Y0144083D01*
X1341645Y0146084D01*
X1343646Y0149085D01*
X1343646Y0151087D01*
X1345647Y0154088D01*
X1345647Y0157090D01*
X1324636Y0157090D01*
X1324636Y0163094D01*
X1354651Y0163094D01*
X1354651Y0161092D01*
X1353650Y0159091D01*
X1352650Y0157090D01*
X1352650Y0155089D01*
X1350649Y0152087D01*
X1350649Y0150086D01*
X1348648Y0147084D01*
X1348648Y0145083D01*
X1347648Y0143082D01*
X1346647Y0141081D01*
X1345647Y0139080D01*
X1345647Y0137079D01*
X1343646Y0134077D01*
X1343646Y0132076D01*
X1341645Y0129074D01*
X1341645Y0127073D01*
X1340644Y0125072D01*
X1339644Y0123071D01*
X1338643Y0121069D01*
X1338643Y0119068D01*
X1336642Y0116067D01*
X1336642Y0114065D01*
X1329639Y0114065D01*
X1329639Y0114065D01*
G37*
G36*
X1123540Y0250143D02*
X1123540Y0287165D01*
X1121539Y0287165D01*
X1116536Y0282162D01*
X1112535Y0286164D01*
X1112535Y0288165D01*
X1125541Y0299172D01*
X1131544Y0299172D01*
X1131544Y0250143D01*
X1123540Y0250143D01*
X1123540Y0250143D01*
G37*
G36*
X1074516Y0250143D02*
X1074516Y0257147D01*
X1087523Y0269154D01*
X1092525Y0275158D01*
X1094526Y0278160D01*
X1095526Y0280161D01*
X1095526Y0282162D01*
X1096527Y0284163D01*
X1096527Y0287165D01*
X1094526Y0290166D01*
X1091524Y0292168D01*
X1089523Y0293168D01*
X1080519Y0293168D01*
X1078518Y0292168D01*
X1076517Y0291167D01*
X1074516Y0293168D01*
X1074516Y0296170D01*
X1076517Y0296170D01*
X1079519Y0298171D01*
X1082520Y0298171D01*
X1084521Y0299172D01*
X1092525Y0299172D01*
X1094526Y0298171D01*
X1097527Y0296170D01*
X1100529Y0293168D01*
X1102530Y0290166D01*
X1102530Y0288165D01*
X1103530Y0286164D01*
X1103530Y0281161D01*
X1102530Y0279160D01*
X1101529Y0277159D01*
X1099528Y0274157D01*
X1097527Y0271155D01*
X1084521Y0256147D01*
X1104531Y0256147D01*
X1104531Y0250143D01*
X1074516Y0250143D01*
X1074516Y0250143D01*
G37*
G36*
X1040500Y0248142D02*
X1040500Y0252145D01*
X1042501Y0255146D01*
X1042501Y0257147D01*
X1043501Y0259149D01*
X1044502Y0261150D01*
X1045502Y0263151D01*
X1045502Y0265152D01*
X1046503Y0267153D01*
X1047503Y0269154D01*
X1048504Y0271155D01*
X1048504Y0273157D01*
X1049504Y0275158D01*
X1050505Y0277159D01*
X1051505Y0279160D01*
X1051505Y0281161D01*
X1052506Y0283162D01*
X1053506Y0285164D01*
X1054507Y0287165D01*
X1054507Y0289166D01*
X1055507Y0291167D01*
X1056508Y0293168D01*
X1057508Y0295169D01*
X1057508Y0297170D01*
X1058509Y0299172D01*
X1059509Y0301173D01*
X1061510Y0303174D01*
X1064511Y0303174D01*
X1064511Y0301173D01*
X1063511Y0299172D01*
X1062511Y0297170D01*
X1062511Y0295169D01*
X1060510Y0292168D01*
X1060510Y0290166D01*
X1059509Y0288165D01*
X1058509Y0286164D01*
X1057508Y0284163D01*
X1057508Y0282162D01*
X1056508Y0280161D01*
X1055507Y0278160D01*
X1054507Y0276158D01*
X1054507Y0274157D01*
X1053506Y0272156D01*
X1052506Y0270155D01*
X1052506Y0268154D01*
X1050505Y0265152D01*
X1050505Y0263151D01*
X1049504Y0261150D01*
X1048504Y0259149D01*
X1047503Y0257147D01*
X1047503Y0255146D01*
X1046503Y0253145D01*
X1045502Y0251144D01*
X1044502Y0249143D01*
X1042501Y0248142D01*
X1040500Y0248142D01*
X1040500Y0248142D01*
G37*
G36*
X1023492Y0250143D02*
X1023492Y0287165D01*
X1021491Y0287165D01*
X1016488Y0282162D01*
X1012486Y0286164D01*
X1012486Y0288165D01*
X1025493Y0299172D01*
X1031496Y0299172D01*
X1031496Y0250143D01*
X1023492Y0250143D01*
X1023492Y0250143D01*
G37*
G36*
X0974468Y0250143D02*
X0974468Y0257147D01*
X0987474Y0269154D01*
X0992477Y0275158D01*
X0994478Y0278160D01*
X0995478Y0280161D01*
X0995478Y0282162D01*
X0996479Y0284163D01*
X0996479Y0287165D01*
X0994478Y0290166D01*
X0991476Y0292168D01*
X0989475Y0293168D01*
X0980471Y0293168D01*
X0978470Y0292168D01*
X0976469Y0291167D01*
X0974468Y0293168D01*
X0974468Y0296170D01*
X0976469Y0296170D01*
X0979471Y0298171D01*
X0982472Y0298171D01*
X0984473Y0299172D01*
X0992477Y0299172D01*
X0994478Y0298171D01*
X0997479Y0296170D01*
X1000481Y0293168D01*
X1002482Y0290166D01*
X1002482Y0288165D01*
X1003482Y0286164D01*
X1003482Y0281161D01*
X1002482Y0279160D01*
X1001481Y0277159D01*
X0999480Y0274157D01*
X0997479Y0271155D01*
X0984473Y0256147D01*
X1004483Y0256147D01*
X1004483Y0250143D01*
X0974468Y0250143D01*
X0974468Y0250143D01*
G37*
G36*
X0940452Y0248142D02*
X0940452Y0252145D01*
X0942453Y0255146D01*
X0942453Y0257147D01*
X0943453Y0259149D01*
X0944454Y0261150D01*
X0945454Y0263151D01*
X0945454Y0265152D01*
X0946455Y0267153D01*
X0947455Y0269154D01*
X0948456Y0271155D01*
X0948456Y0273157D01*
X0949456Y0275158D01*
X0950457Y0277159D01*
X0951457Y0279160D01*
X0951457Y0281161D01*
X0952458Y0283162D01*
X0953458Y0285164D01*
X0954459Y0287165D01*
X0954459Y0289166D01*
X0955459Y0291167D01*
X0956460Y0293168D01*
X0957460Y0295169D01*
X0957460Y0297170D01*
X0958461Y0299172D01*
X0959461Y0301173D01*
X0961462Y0303174D01*
X0964463Y0303174D01*
X0964463Y0301173D01*
X0963463Y0299172D01*
X0962462Y0297170D01*
X0962462Y0295169D01*
X0960461Y0292168D01*
X0960461Y0290166D01*
X0959461Y0288165D01*
X0958461Y0286164D01*
X0957460Y0284163D01*
X0957460Y0282162D01*
X0956460Y0280161D01*
X0955459Y0278160D01*
X0954459Y0276158D01*
X0954459Y0274157D01*
X0953458Y0272156D01*
X0952458Y0270155D01*
X0952458Y0268154D01*
X0950457Y0265152D01*
X0950457Y0263151D01*
X0949456Y0261150D01*
X0948456Y0259149D01*
X0947455Y0257147D01*
X0947455Y0255146D01*
X0946455Y0253145D01*
X0945454Y0251144D01*
X0944454Y0249143D01*
X0942453Y0248142D01*
X0940452Y0248142D01*
X0940452Y0248142D01*
G37*
G36*
X0918441Y0249143D02*
X0918441Y0255146D01*
X0920442Y0255146D01*
X0924444Y0259149D01*
X0925445Y0261150D01*
X0925445Y0263151D01*
X0924444Y0265152D01*
X0920442Y0269154D01*
X0918441Y0271155D01*
X0918441Y0278160D01*
X0922443Y0282162D01*
X0923444Y0284163D01*
X0923444Y0291167D01*
X0920442Y0293168D01*
X0918441Y0293168D01*
X0918441Y0299172D01*
X0921443Y0299172D01*
X0923444Y0298171D01*
X0928446Y0293168D01*
X0929447Y0291167D01*
X0929447Y0283162D01*
X0927446Y0281161D01*
X0923444Y0276158D01*
X0923444Y0274157D01*
X0925445Y0274157D01*
X0930447Y0268154D01*
X0931448Y0266153D01*
X0931448Y0258148D01*
X0924444Y0251144D01*
X0922443Y0250143D01*
X0920442Y0250143D01*
X0918441Y0249143D01*
X0918441Y0249143D01*
G37*
G36*
X0912438Y0249143D02*
X0912438Y0250143D01*
X0909437Y0250143D01*
X0906436Y0252145D01*
X0903434Y0255146D01*
X0902434Y0257147D01*
X0901433Y0259149D01*
X0901433Y0267153D01*
X0902434Y0269154D01*
X0908436Y0275158D01*
X0909437Y0277159D01*
X0907436Y0278160D01*
X0905435Y0280161D01*
X0903434Y0283162D01*
X0902434Y0285164D01*
X0902434Y0289166D01*
X0903434Y0291167D01*
X0904435Y0293168D01*
X0908436Y0297170D01*
X0910437Y0298171D01*
X0912438Y0298171D01*
X0914439Y0299172D01*
X0914439Y0293168D01*
X0912438Y0293168D01*
X0910437Y0291167D01*
X0909437Y0289166D01*
X0909437Y0284163D01*
X0914439Y0279160D01*
X0914439Y0273157D01*
X0912438Y0272156D01*
X0910437Y0270155D01*
X0908436Y0267153D01*
X0908436Y0265152D01*
X0907436Y0263151D01*
X0907436Y0261150D01*
X0908436Y0259149D01*
X0910437Y0257147D01*
X0912438Y0256147D01*
X0914439Y0254146D01*
X0914439Y0249143D01*
X0912438Y0249143D01*
X0912438Y0249143D01*
G37*
G36*
X0775373Y0256147D02*
X0775373Y0291167D01*
X0777374Y0292168D01*
X0811390Y0292168D01*
X0811390Y0256147D01*
X0775373Y0256147D01*
X0775373Y0256147D01*
G37*
G36*
X0740356Y0254146D02*
X0740356Y0255146D01*
X0737354Y0255146D01*
X0734353Y0257147D01*
X0728350Y0263151D01*
X0727349Y0265152D01*
X0726349Y0267153D01*
X0726349Y0269154D01*
X0725349Y0271155D01*
X0725349Y0278160D01*
X0726349Y0280161D01*
X0726349Y0282162D01*
X0734353Y0290166D01*
X0737354Y0292168D01*
X0739355Y0292168D01*
X0742357Y0294169D01*
X0746359Y0294169D01*
X0748360Y0293168D01*
X0751361Y0293168D01*
X0753362Y0292168D01*
X0756363Y0290166D01*
X0761366Y0285164D01*
X0762366Y0283162D01*
X0763367Y0281161D01*
X0764367Y0279160D01*
X0764367Y0267153D01*
X0762366Y0264151D01*
X0759365Y0260149D01*
X0754362Y0256147D01*
X0752361Y0256147D01*
X0749360Y0254146D01*
X0740356Y0254146D01*
X0740356Y0254146D01*
G37*
G36*
X0727349Y0208119D02*
X0727349Y0243139D01*
X0763367Y0243139D01*
X0763367Y0209120D01*
X0761366Y0208119D01*
X0727349Y0208119D01*
X0727349Y0208119D01*
G37*
G36*
X0678326Y0208119D02*
X0678326Y0243139D01*
X0714343Y0243139D01*
X0714343Y0208119D01*
X0678326Y0208119D01*
X0678326Y0208119D01*
G37*
G36*
X0678326Y0256147D02*
X0678326Y0292168D01*
X0713343Y0292168D01*
X0714343Y0290166D01*
X0714343Y0256147D01*
X0678326Y0256147D01*
X0678326Y0256147D01*
G37*
G36*
X0692333Y0302173D02*
X0692333Y0303174D01*
X0689331Y0303174D01*
X0686330Y0305175D01*
X0680327Y0311178D01*
X0679326Y0313180D01*
X0678326Y0315181D01*
X0678326Y0317182D01*
X0677325Y0319183D01*
X0677325Y0327188D01*
X0679326Y0330189D01*
X0680327Y0332190D01*
X0687330Y0339195D01*
X0689331Y0340195D01*
X0691332Y0340195D01*
X0693333Y0341196D01*
X0696335Y0341196D01*
X0698336Y0342196D01*
X0700336Y0341196D01*
X0703338Y0341196D01*
X0706339Y0339195D01*
X0710341Y0336193D01*
X0712342Y0334192D01*
X0714343Y0331190D01*
X0715344Y0329189D01*
X0715344Y0327188D01*
X0716344Y0325186D01*
X0716344Y0322185D01*
X0717345Y0320184D01*
X0716344Y0318182D01*
X0716344Y0315181D01*
X0714343Y0312179D01*
X0707340Y0305175D01*
X0705339Y0304174D01*
X0703338Y0303174D01*
X0701337Y0302173D01*
X0692333Y0302173D01*
X0692333Y0302173D01*
G37*
G36*
X0727349Y0304174D02*
X0727349Y0339195D01*
X0729350Y0339195D01*
X0731351Y0340195D01*
X0762366Y0340195D01*
X0763367Y0338194D01*
X0763367Y0305175D01*
X0761366Y0304174D01*
X0727349Y0304174D01*
X0727349Y0304174D01*
G37*
G36*
X0775373Y0304174D02*
X0775373Y0339195D01*
X0777374Y0340195D01*
X0811390Y0340195D01*
X0811390Y0304174D01*
X0775373Y0304174D01*
X0775373Y0304174D01*
G37*
G36*
X0776373Y0208119D02*
X0776373Y0209120D01*
X0775373Y0211121D01*
X0775373Y0243139D01*
X0811390Y0243139D01*
X0811390Y0208119D01*
X0776373Y0208119D01*
X0776373Y0208119D01*
G37*
M02*
