G04 #@! TF.GenerationSoftware,KiCad,Pcbnew,9.0.1*
G04 #@! TF.CreationDate,2025-04-26T15:09:06-04:00*
G04 #@! TF.ProjectId,hello.LSM6DSV.RP2040,68656c6c-6f2e-44c5-934d-364453562e52,rev?*
G04 #@! TF.SameCoordinates,Original*
G04 #@! TF.FileFunction,Soldermask,Top*
G04 #@! TF.FilePolarity,Negative*
%FSLAX46Y46*%
G04 Gerber Fmt 4.6, Leading zero omitted, Abs format (unit mm)*
G04 Created by KiCad (PCBNEW 9.0.1) date 2025-04-26 15:09:06*
%MOMM*%
%LPD*%
G01*
G04 APERTURE LIST*
%ADD10C,1.600000*%
%ADD11R,3.000000X1.600000*%
%ADD12R,1.200000X2.400000*%
%ADD13C,1.200000*%
%ADD14R,0.889000X0.609600*%
%ADD15R,0.609600X0.889000*%
%ADD16R,0.838200X0.254000*%
%ADD17R,0.254000X0.838200*%
%ADD18R,0.730000X0.940000*%
G04 APERTURE END LIST*
D10*
G04 #@! TO.C,M1*
X132985000Y-64780000D03*
D11*
X131985000Y-64780000D03*
D10*
X132985000Y-67320000D03*
D11*
X131985000Y-67320000D03*
D10*
X132985000Y-69860000D03*
D11*
X131985000Y-69860000D03*
D10*
X132985000Y-72400000D03*
D11*
X131985000Y-72400000D03*
D10*
X132985000Y-74940000D03*
D11*
X131985000Y-74940000D03*
D10*
X132985000Y-77480000D03*
D11*
X131985000Y-77480000D03*
D10*
X132985000Y-80020000D03*
D11*
X131985000Y-80020000D03*
D10*
X148220000Y-80020000D03*
D11*
X149220000Y-80020000D03*
D10*
X148220000Y-77480000D03*
D11*
X149220000Y-77480000D03*
D10*
X148220000Y-74940000D03*
D11*
X149220000Y-74940000D03*
D10*
X148220000Y-72400000D03*
D11*
X149220000Y-72400000D03*
D10*
X148220000Y-69860000D03*
D11*
X149220000Y-69860000D03*
D10*
X148220000Y-67320000D03*
D11*
X149220000Y-67320000D03*
D10*
X148220000Y-64780000D03*
D11*
X149220000Y-64780000D03*
D12*
X141875000Y-81290000D03*
X139335000Y-81290000D03*
D13*
X139330000Y-63900000D03*
X139330000Y-66440000D03*
X141870000Y-66440000D03*
X141870000Y-63900000D03*
G04 #@! TD*
D14*
G04 #@! TO.C,R1*
X135370000Y-89451400D03*
X135370000Y-90950000D03*
G04 #@! TD*
D15*
G04 #@! TO.C,R2*
X141190700Y-85220000D03*
X142689300Y-85220000D03*
G04 #@! TD*
D16*
G04 #@! TO.C,U1*
X138934900Y-89299999D03*
X138934900Y-89800000D03*
X138934900Y-90300000D03*
X138934900Y-90800001D03*
D17*
X139870001Y-91231100D03*
X140370000Y-91231100D03*
X140869999Y-91231100D03*
D16*
X141805100Y-90800001D03*
X141805100Y-90300000D03*
X141805100Y-89800000D03*
X141805100Y-89299999D03*
D17*
X140869999Y-88868900D03*
X140370000Y-88868900D03*
X139870001Y-88868900D03*
G04 #@! TD*
D18*
G04 #@! TO.C,C1*
X143730000Y-91710000D03*
X145150000Y-91710000D03*
G04 #@! TD*
M02*
