G04 #@! TF.GenerationSoftware,KiCad,Pcbnew,9.0.1*
G04 #@! TF.CreationDate,2025-04-26T15:09:06-04:00*
G04 #@! TF.ProjectId,hello.LSM6DSV.RP2040,68656c6c-6f2e-44c5-934d-364453562e52,rev?*
G04 #@! TF.SameCoordinates,Original*
G04 #@! TF.FileFunction,Legend,Top*
G04 #@! TF.FilePolarity,Positive*
%FSLAX46Y46*%
G04 Gerber Fmt 4.6, Leading zero omitted, Abs format (unit mm)*
G04 Created by KiCad (PCBNEW 9.0.1) date 2025-04-26 15:09:06*
%MOMM*%
%LPD*%
G01*
G04 APERTURE LIST*
%ADD10C,0.150000*%
%ADD11C,0.100000*%
%ADD12C,0.254000*%
%ADD13C,0.120000*%
%ADD14C,0.152400*%
%ADD15C,0.000000*%
%ADD16C,1.600000*%
%ADD17R,3.000000X1.600000*%
%ADD18R,1.200000X2.400000*%
%ADD19C,1.200000*%
%ADD20R,0.889000X0.609600*%
%ADD21R,0.609600X0.889000*%
%ADD22R,0.838200X0.254000*%
%ADD23R,0.254000X0.838200*%
%ADD24R,0.730000X0.940000*%
G04 APERTURE END LIST*
D10*
X139790476Y-71584819D02*
X139790476Y-70584819D01*
X139790476Y-70584819D02*
X140123809Y-71299104D01*
X140123809Y-71299104D02*
X140457142Y-70584819D01*
X140457142Y-70584819D02*
X140457142Y-71584819D01*
X141457142Y-71584819D02*
X140885714Y-71584819D01*
X141171428Y-71584819D02*
X141171428Y-70584819D01*
X141171428Y-70584819D02*
X141076190Y-70727676D01*
X141076190Y-70727676D02*
X140980952Y-70822914D01*
X140980952Y-70822914D02*
X140885714Y-70870533D01*
D11*
X140826109Y-67166190D02*
X140588014Y-67332856D01*
X140826109Y-67451904D02*
X140326109Y-67451904D01*
X140326109Y-67451904D02*
X140326109Y-67261428D01*
X140326109Y-67261428D02*
X140349919Y-67213809D01*
X140349919Y-67213809D02*
X140373728Y-67189999D01*
X140373728Y-67189999D02*
X140421347Y-67166190D01*
X140421347Y-67166190D02*
X140492776Y-67166190D01*
X140492776Y-67166190D02*
X140540395Y-67189999D01*
X140540395Y-67189999D02*
X140564204Y-67213809D01*
X140564204Y-67213809D02*
X140588014Y-67261428D01*
X140588014Y-67261428D02*
X140588014Y-67451904D01*
X140564204Y-66951904D02*
X140564204Y-66785237D01*
X140826109Y-66713809D02*
X140826109Y-66951904D01*
X140826109Y-66951904D02*
X140326109Y-66951904D01*
X140326109Y-66951904D02*
X140326109Y-66713809D01*
X140802300Y-66523332D02*
X140826109Y-66451904D01*
X140826109Y-66451904D02*
X140826109Y-66332856D01*
X140826109Y-66332856D02*
X140802300Y-66285237D01*
X140802300Y-66285237D02*
X140778490Y-66261428D01*
X140778490Y-66261428D02*
X140730871Y-66237618D01*
X140730871Y-66237618D02*
X140683252Y-66237618D01*
X140683252Y-66237618D02*
X140635633Y-66261428D01*
X140635633Y-66261428D02*
X140611823Y-66285237D01*
X140611823Y-66285237D02*
X140588014Y-66332856D01*
X140588014Y-66332856D02*
X140564204Y-66428094D01*
X140564204Y-66428094D02*
X140540395Y-66475713D01*
X140540395Y-66475713D02*
X140516585Y-66499523D01*
X140516585Y-66499523D02*
X140468966Y-66523332D01*
X140468966Y-66523332D02*
X140421347Y-66523332D01*
X140421347Y-66523332D02*
X140373728Y-66499523D01*
X140373728Y-66499523D02*
X140349919Y-66475713D01*
X140349919Y-66475713D02*
X140326109Y-66428094D01*
X140326109Y-66428094D02*
X140326109Y-66309047D01*
X140326109Y-66309047D02*
X140349919Y-66237618D01*
X140564204Y-66023333D02*
X140564204Y-65856666D01*
X140826109Y-65785238D02*
X140826109Y-66023333D01*
X140826109Y-66023333D02*
X140326109Y-66023333D01*
X140326109Y-66023333D02*
X140326109Y-65785238D01*
X140326109Y-65642380D02*
X140326109Y-65356666D01*
X140826109Y-65499523D02*
X140326109Y-65499523D01*
X142894919Y-81670952D02*
X142871109Y-81718571D01*
X142871109Y-81718571D02*
X142871109Y-81790000D01*
X142871109Y-81790000D02*
X142894919Y-81861428D01*
X142894919Y-81861428D02*
X142942538Y-81909047D01*
X142942538Y-81909047D02*
X142990157Y-81932857D01*
X142990157Y-81932857D02*
X143085395Y-81956666D01*
X143085395Y-81956666D02*
X143156823Y-81956666D01*
X143156823Y-81956666D02*
X143252061Y-81932857D01*
X143252061Y-81932857D02*
X143299680Y-81909047D01*
X143299680Y-81909047D02*
X143347300Y-81861428D01*
X143347300Y-81861428D02*
X143371109Y-81790000D01*
X143371109Y-81790000D02*
X143371109Y-81742381D01*
X143371109Y-81742381D02*
X143347300Y-81670952D01*
X143347300Y-81670952D02*
X143323490Y-81647143D01*
X143323490Y-81647143D02*
X143156823Y-81647143D01*
X143156823Y-81647143D02*
X143156823Y-81742381D01*
X143371109Y-81432857D02*
X142871109Y-81432857D01*
X142871109Y-81432857D02*
X143371109Y-81147143D01*
X143371109Y-81147143D02*
X142871109Y-81147143D01*
X143371109Y-80909047D02*
X142871109Y-80909047D01*
X142871109Y-80909047D02*
X142871109Y-80789999D01*
X142871109Y-80789999D02*
X142894919Y-80718571D01*
X142894919Y-80718571D02*
X142942538Y-80670952D01*
X142942538Y-80670952D02*
X142990157Y-80647142D01*
X142990157Y-80647142D02*
X143085395Y-80623333D01*
X143085395Y-80623333D02*
X143156823Y-80623333D01*
X143156823Y-80623333D02*
X143252061Y-80647142D01*
X143252061Y-80647142D02*
X143299680Y-80670952D01*
X143299680Y-80670952D02*
X143347300Y-80718571D01*
X143347300Y-80718571D02*
X143371109Y-80789999D01*
X143371109Y-80789999D02*
X143371109Y-80909047D01*
X137791109Y-81837618D02*
X138291109Y-81670952D01*
X138291109Y-81670952D02*
X137791109Y-81504285D01*
X138291109Y-81337619D02*
X137791109Y-81337619D01*
X138291109Y-81099524D02*
X137791109Y-81099524D01*
X137791109Y-81099524D02*
X138291109Y-80813810D01*
X138291109Y-80813810D02*
X137791109Y-80813810D01*
X140802300Y-64959523D02*
X140826109Y-64888095D01*
X140826109Y-64888095D02*
X140826109Y-64769047D01*
X140826109Y-64769047D02*
X140802300Y-64721428D01*
X140802300Y-64721428D02*
X140778490Y-64697619D01*
X140778490Y-64697619D02*
X140730871Y-64673809D01*
X140730871Y-64673809D02*
X140683252Y-64673809D01*
X140683252Y-64673809D02*
X140635633Y-64697619D01*
X140635633Y-64697619D02*
X140611823Y-64721428D01*
X140611823Y-64721428D02*
X140588014Y-64769047D01*
X140588014Y-64769047D02*
X140564204Y-64864285D01*
X140564204Y-64864285D02*
X140540395Y-64911904D01*
X140540395Y-64911904D02*
X140516585Y-64935714D01*
X140516585Y-64935714D02*
X140468966Y-64959523D01*
X140468966Y-64959523D02*
X140421347Y-64959523D01*
X140421347Y-64959523D02*
X140373728Y-64935714D01*
X140373728Y-64935714D02*
X140349919Y-64911904D01*
X140349919Y-64911904D02*
X140326109Y-64864285D01*
X140326109Y-64864285D02*
X140326109Y-64745238D01*
X140326109Y-64745238D02*
X140349919Y-64673809D01*
X140326109Y-64507143D02*
X140826109Y-64388095D01*
X140826109Y-64388095D02*
X140468966Y-64292857D01*
X140468966Y-64292857D02*
X140826109Y-64197619D01*
X140826109Y-64197619D02*
X140326109Y-64078572D01*
X140826109Y-63888095D02*
X140326109Y-63888095D01*
X140326109Y-63888095D02*
X140326109Y-63769047D01*
X140326109Y-63769047D02*
X140349919Y-63697619D01*
X140349919Y-63697619D02*
X140397538Y-63650000D01*
X140397538Y-63650000D02*
X140445157Y-63626190D01*
X140445157Y-63626190D02*
X140540395Y-63602381D01*
X140540395Y-63602381D02*
X140611823Y-63602381D01*
X140611823Y-63602381D02*
X140707061Y-63626190D01*
X140707061Y-63626190D02*
X140754680Y-63650000D01*
X140754680Y-63650000D02*
X140802300Y-63697619D01*
X140802300Y-63697619D02*
X140826109Y-63769047D01*
X140826109Y-63769047D02*
X140826109Y-63888095D01*
X140826109Y-63388095D02*
X140326109Y-63388095D01*
X140326109Y-63054762D02*
X140326109Y-62959524D01*
X140326109Y-62959524D02*
X140349919Y-62911905D01*
X140349919Y-62911905D02*
X140397538Y-62864286D01*
X140397538Y-62864286D02*
X140492776Y-62840476D01*
X140492776Y-62840476D02*
X140659442Y-62840476D01*
X140659442Y-62840476D02*
X140754680Y-62864286D01*
X140754680Y-62864286D02*
X140802300Y-62911905D01*
X140802300Y-62911905D02*
X140826109Y-62959524D01*
X140826109Y-62959524D02*
X140826109Y-63054762D01*
X140826109Y-63054762D02*
X140802300Y-63102381D01*
X140802300Y-63102381D02*
X140754680Y-63150000D01*
X140754680Y-63150000D02*
X140659442Y-63173809D01*
X140659442Y-63173809D02*
X140492776Y-63173809D01*
X140492776Y-63173809D02*
X140397538Y-63150000D01*
X140397538Y-63150000D02*
X140349919Y-63102381D01*
X140349919Y-63102381D02*
X140326109Y-63054762D01*
X142889919Y-66820952D02*
X142866109Y-66868571D01*
X142866109Y-66868571D02*
X142866109Y-66940000D01*
X142866109Y-66940000D02*
X142889919Y-67011428D01*
X142889919Y-67011428D02*
X142937538Y-67059047D01*
X142937538Y-67059047D02*
X142985157Y-67082857D01*
X142985157Y-67082857D02*
X143080395Y-67106666D01*
X143080395Y-67106666D02*
X143151823Y-67106666D01*
X143151823Y-67106666D02*
X143247061Y-67082857D01*
X143247061Y-67082857D02*
X143294680Y-67059047D01*
X143294680Y-67059047D02*
X143342300Y-67011428D01*
X143342300Y-67011428D02*
X143366109Y-66940000D01*
X143366109Y-66940000D02*
X143366109Y-66892381D01*
X143366109Y-66892381D02*
X143342300Y-66820952D01*
X143342300Y-66820952D02*
X143318490Y-66797143D01*
X143318490Y-66797143D02*
X143151823Y-66797143D01*
X143151823Y-66797143D02*
X143151823Y-66892381D01*
X143366109Y-66582857D02*
X142866109Y-66582857D01*
X142866109Y-66582857D02*
X143366109Y-66297143D01*
X143366109Y-66297143D02*
X142866109Y-66297143D01*
X143366109Y-66059047D02*
X142866109Y-66059047D01*
X142866109Y-66059047D02*
X142866109Y-65939999D01*
X142866109Y-65939999D02*
X142889919Y-65868571D01*
X142889919Y-65868571D02*
X142937538Y-65820952D01*
X142937538Y-65820952D02*
X142985157Y-65797142D01*
X142985157Y-65797142D02*
X143080395Y-65773333D01*
X143080395Y-65773333D02*
X143151823Y-65773333D01*
X143151823Y-65773333D02*
X143247061Y-65797142D01*
X143247061Y-65797142D02*
X143294680Y-65820952D01*
X143294680Y-65820952D02*
X143342300Y-65868571D01*
X143342300Y-65868571D02*
X143366109Y-65939999D01*
X143366109Y-65939999D02*
X143366109Y-66059047D01*
X143342300Y-65030951D02*
X143366109Y-64959523D01*
X143366109Y-64959523D02*
X143366109Y-64840475D01*
X143366109Y-64840475D02*
X143342300Y-64792856D01*
X143342300Y-64792856D02*
X143318490Y-64769047D01*
X143318490Y-64769047D02*
X143270871Y-64745237D01*
X143270871Y-64745237D02*
X143223252Y-64745237D01*
X143223252Y-64745237D02*
X143175633Y-64769047D01*
X143175633Y-64769047D02*
X143151823Y-64792856D01*
X143151823Y-64792856D02*
X143128014Y-64840475D01*
X143128014Y-64840475D02*
X143104204Y-64935713D01*
X143104204Y-64935713D02*
X143080395Y-64983332D01*
X143080395Y-64983332D02*
X143056585Y-65007142D01*
X143056585Y-65007142D02*
X143008966Y-65030951D01*
X143008966Y-65030951D02*
X142961347Y-65030951D01*
X142961347Y-65030951D02*
X142913728Y-65007142D01*
X142913728Y-65007142D02*
X142889919Y-64983332D01*
X142889919Y-64983332D02*
X142866109Y-64935713D01*
X142866109Y-64935713D02*
X142866109Y-64816666D01*
X142866109Y-64816666D02*
X142889919Y-64745237D01*
X142866109Y-64578571D02*
X143366109Y-64459523D01*
X143366109Y-64459523D02*
X143008966Y-64364285D01*
X143008966Y-64364285D02*
X143366109Y-64269047D01*
X143366109Y-64269047D02*
X142866109Y-64150000D01*
X143318490Y-63673809D02*
X143342300Y-63697618D01*
X143342300Y-63697618D02*
X143366109Y-63769047D01*
X143366109Y-63769047D02*
X143366109Y-63816666D01*
X143366109Y-63816666D02*
X143342300Y-63888094D01*
X143342300Y-63888094D02*
X143294680Y-63935713D01*
X143294680Y-63935713D02*
X143247061Y-63959523D01*
X143247061Y-63959523D02*
X143151823Y-63983332D01*
X143151823Y-63983332D02*
X143080395Y-63983332D01*
X143080395Y-63983332D02*
X142985157Y-63959523D01*
X142985157Y-63959523D02*
X142937538Y-63935713D01*
X142937538Y-63935713D02*
X142889919Y-63888094D01*
X142889919Y-63888094D02*
X142866109Y-63816666D01*
X142866109Y-63816666D02*
X142866109Y-63769047D01*
X142866109Y-63769047D02*
X142889919Y-63697618D01*
X142889919Y-63697618D02*
X142913728Y-63673809D01*
X143366109Y-63221428D02*
X143366109Y-63459523D01*
X143366109Y-63459523D02*
X142866109Y-63459523D01*
X143366109Y-63054761D02*
X142866109Y-63054761D01*
X143366109Y-62769047D02*
X143080395Y-62983332D01*
X142866109Y-62769047D02*
X143151823Y-63054761D01*
D10*
X133195180Y-88073333D02*
X133671371Y-87740000D01*
X133195180Y-87501905D02*
X134195180Y-87501905D01*
X134195180Y-87501905D02*
X134195180Y-87882857D01*
X134195180Y-87882857D02*
X134147561Y-87978095D01*
X134147561Y-87978095D02*
X134099942Y-88025714D01*
X134099942Y-88025714D02*
X134004704Y-88073333D01*
X134004704Y-88073333D02*
X133861847Y-88073333D01*
X133861847Y-88073333D02*
X133766609Y-88025714D01*
X133766609Y-88025714D02*
X133718990Y-87978095D01*
X133718990Y-87978095D02*
X133671371Y-87882857D01*
X133671371Y-87882857D02*
X133671371Y-87501905D01*
X133195180Y-89025714D02*
X133195180Y-88454286D01*
X133195180Y-88740000D02*
X134195180Y-88740000D01*
X134195180Y-88740000D02*
X134052323Y-88644762D01*
X134052323Y-88644762D02*
X133957085Y-88549524D01*
X133957085Y-88549524D02*
X133909466Y-88454286D01*
X144353333Y-85754819D02*
X144020000Y-85278628D01*
X143781905Y-85754819D02*
X143781905Y-84754819D01*
X143781905Y-84754819D02*
X144162857Y-84754819D01*
X144162857Y-84754819D02*
X144258095Y-84802438D01*
X144258095Y-84802438D02*
X144305714Y-84850057D01*
X144305714Y-84850057D02*
X144353333Y-84945295D01*
X144353333Y-84945295D02*
X144353333Y-85088152D01*
X144353333Y-85088152D02*
X144305714Y-85183390D01*
X144305714Y-85183390D02*
X144258095Y-85231009D01*
X144258095Y-85231009D02*
X144162857Y-85278628D01*
X144162857Y-85278628D02*
X143781905Y-85278628D01*
X144734286Y-84850057D02*
X144781905Y-84802438D01*
X144781905Y-84802438D02*
X144877143Y-84754819D01*
X144877143Y-84754819D02*
X145115238Y-84754819D01*
X145115238Y-84754819D02*
X145210476Y-84802438D01*
X145210476Y-84802438D02*
X145258095Y-84850057D01*
X145258095Y-84850057D02*
X145305714Y-84945295D01*
X145305714Y-84945295D02*
X145305714Y-85040533D01*
X145305714Y-85040533D02*
X145258095Y-85183390D01*
X145258095Y-85183390D02*
X144686667Y-85754819D01*
X144686667Y-85754819D02*
X145305714Y-85754819D01*
X137058095Y-87144819D02*
X137058095Y-87954342D01*
X137058095Y-87954342D02*
X137105714Y-88049580D01*
X137105714Y-88049580D02*
X137153333Y-88097200D01*
X137153333Y-88097200D02*
X137248571Y-88144819D01*
X137248571Y-88144819D02*
X137439047Y-88144819D01*
X137439047Y-88144819D02*
X137534285Y-88097200D01*
X137534285Y-88097200D02*
X137581904Y-88049580D01*
X137581904Y-88049580D02*
X137629523Y-87954342D01*
X137629523Y-87954342D02*
X137629523Y-87144819D01*
X138629523Y-88144819D02*
X138058095Y-88144819D01*
X138343809Y-88144819D02*
X138343809Y-87144819D01*
X138343809Y-87144819D02*
X138248571Y-87287676D01*
X138248571Y-87287676D02*
X138153333Y-87382914D01*
X138153333Y-87382914D02*
X138058095Y-87430533D01*
X137728400Y-88754819D02*
X137728400Y-88992914D01*
X137490305Y-88897676D02*
X137728400Y-88992914D01*
X137728400Y-88992914D02*
X137966495Y-88897676D01*
X137585543Y-89183390D02*
X137728400Y-88992914D01*
X137728400Y-88992914D02*
X137871257Y-89183390D01*
X137728400Y-88754819D02*
X137728400Y-88992914D01*
X137490305Y-88897676D02*
X137728400Y-88992914D01*
X137728400Y-88992914D02*
X137966495Y-88897676D01*
X137585543Y-89183390D02*
X137728400Y-88992914D01*
X137728400Y-88992914D02*
X137871257Y-89183390D01*
D12*
X144938333Y-90053365D02*
X144877857Y-90113842D01*
X144877857Y-90113842D02*
X144696428Y-90174318D01*
X144696428Y-90174318D02*
X144575476Y-90174318D01*
X144575476Y-90174318D02*
X144394047Y-90113842D01*
X144394047Y-90113842D02*
X144273095Y-89992889D01*
X144273095Y-89992889D02*
X144212618Y-89871937D01*
X144212618Y-89871937D02*
X144152142Y-89630032D01*
X144152142Y-89630032D02*
X144152142Y-89448603D01*
X144152142Y-89448603D02*
X144212618Y-89206699D01*
X144212618Y-89206699D02*
X144273095Y-89085746D01*
X144273095Y-89085746D02*
X144394047Y-88964794D01*
X144394047Y-88964794D02*
X144575476Y-88904318D01*
X144575476Y-88904318D02*
X144696428Y-88904318D01*
X144696428Y-88904318D02*
X144877857Y-88964794D01*
X144877857Y-88964794D02*
X144938333Y-89025270D01*
X146147857Y-90174318D02*
X145422142Y-90174318D01*
X145784999Y-90174318D02*
X145784999Y-88904318D01*
X145784999Y-88904318D02*
X145664047Y-89085746D01*
X145664047Y-89085746D02*
X145543095Y-89206699D01*
X145543095Y-89206699D02*
X145422142Y-89267175D01*
D13*
G04 #@! TO.C,M1*
X131712500Y-81681000D02*
X131712500Y-63139000D01*
X132982500Y-61869000D02*
X148222500Y-61869000D01*
X148222500Y-82951000D02*
X132982500Y-82951000D01*
X149492500Y-63139000D02*
X149492500Y-81681000D01*
X136102500Y-61869000D02*
X145102500Y-61869000D01*
X145102500Y-60345000D01*
X136102500Y-60345000D01*
X136102500Y-61869000D01*
X131712500Y-63139000D02*
G75*
G02*
X132982500Y-61869000I1269999J1D01*
G01*
X132982500Y-82951000D02*
G75*
G02*
X131712500Y-81681000I-1J1269999D01*
G01*
X148222500Y-61869000D02*
G75*
G02*
X149492500Y-63139000I0J-1270000D01*
G01*
X149492500Y-81681000D02*
G75*
G02*
X148222500Y-82951000I-1270000J0D01*
G01*
D14*
G04 #@! TO.C,R1*
X134798500Y-90063750D02*
X134798500Y-90337650D01*
X135941500Y-90337650D02*
X135941500Y-90063750D01*
G04 #@! TO.C,R2*
X141803050Y-85791500D02*
X142076950Y-85791500D01*
X142076950Y-84648500D02*
X141803050Y-84648500D01*
G04 #@! TO.C,U1*
X138693600Y-91472400D02*
X139410261Y-91472400D01*
X139410261Y-88627600D02*
X138693600Y-88627600D01*
X141329739Y-91472400D02*
X142046400Y-91472400D01*
X142046400Y-88627600D02*
X141329739Y-88627600D01*
D15*
G36*
X142732200Y-89990501D02*
G01*
X142478200Y-89990501D01*
X142478200Y-89609500D01*
X142732200Y-89609500D01*
X142732200Y-89990501D01*
G37*
G04 #@! TD*
%LPC*%
D16*
G04 #@! TO.C,M1*
X132985000Y-64780000D03*
D17*
X131985000Y-64780000D03*
D16*
X132985000Y-67320000D03*
D17*
X131985000Y-67320000D03*
D16*
X132985000Y-69860000D03*
D17*
X131985000Y-69860000D03*
D16*
X132985000Y-72400000D03*
D17*
X131985000Y-72400000D03*
D16*
X132985000Y-74940000D03*
D17*
X131985000Y-74940000D03*
D16*
X132985000Y-77480000D03*
D17*
X131985000Y-77480000D03*
D16*
X132985000Y-80020000D03*
D17*
X131985000Y-80020000D03*
D16*
X148220000Y-80020000D03*
D17*
X149220000Y-80020000D03*
D16*
X148220000Y-77480000D03*
D17*
X149220000Y-77480000D03*
D16*
X148220000Y-74940000D03*
D17*
X149220000Y-74940000D03*
D16*
X148220000Y-72400000D03*
D17*
X149220000Y-72400000D03*
D16*
X148220000Y-69860000D03*
D17*
X149220000Y-69860000D03*
D16*
X148220000Y-67320000D03*
D17*
X149220000Y-67320000D03*
D16*
X148220000Y-64780000D03*
D17*
X149220000Y-64780000D03*
D18*
X141875000Y-81290000D03*
X139335000Y-81290000D03*
D19*
X139330000Y-63900000D03*
X139330000Y-66440000D03*
X141870000Y-66440000D03*
X141870000Y-63900000D03*
G04 #@! TD*
D20*
G04 #@! TO.C,R1*
X135370000Y-89451400D03*
X135370000Y-90950000D03*
G04 #@! TD*
D21*
G04 #@! TO.C,R2*
X141190700Y-85220000D03*
X142689300Y-85220000D03*
G04 #@! TD*
D22*
G04 #@! TO.C,U1*
X138934900Y-89299999D03*
X138934900Y-89800000D03*
X138934900Y-90300000D03*
X138934900Y-90800001D03*
D23*
X139870001Y-91231100D03*
X140370000Y-91231100D03*
X140869999Y-91231100D03*
D22*
X141805100Y-90800001D03*
X141805100Y-90300000D03*
X141805100Y-89800000D03*
X141805100Y-89299999D03*
D23*
X140869999Y-88868900D03*
X140370000Y-88868900D03*
X139870001Y-88868900D03*
G04 #@! TD*
D24*
G04 #@! TO.C,C1*
X143730000Y-91710000D03*
X145150000Y-91710000D03*
G04 #@! TD*
%LPD*%
M02*
