<?xml version="1.0" standalone="no"?>
 <!DOCTYPE svg PUBLIC "-//W3C//DTD SVG 1.1//EN" 
 "http://www.w3.org/Graphics/SVG/1.1/DTD/svg11.dtd"> 
<svg xmlns="http://www.w3.org/2000/svg" version="1.1" 
    width="2.87274cm" height="1.8923cm" viewBox="0 0 11310 7450 ">
<title>SVG Picture created as hello.RGB-F.Cu.svg date 2018/10/06 22:25:36 </title>
  <desc>Picture generated by PCBNEW </desc>
<g style="fill:#000000; fill-opacity:1;stroke:#000000; stroke-opacity:1;
stroke-linecap:round; stroke-linejoin:round; "
 transform="translate(0 0) scale(1 1)">
</g>
<g style="fill:#000000; fill-opacity:0.0; 
stroke:#000000; stroke-width:-0.000393701; stroke-opacity:1; 
stroke-linecap:round; stroke-linejoin:round;">
</g>
<g style="fill:#000000; fill-opacity:0.0; 
stroke:#000000; stroke-width:0; stroke-opacity:1; 
stroke-linecap:round; stroke-linejoin:round;">
</g>
<g style="fill:#000000; fill-opacity:1.0; 
stroke:#000000; stroke-width:0; stroke-opacity:1; 
stroke-linecap:round; stroke-linejoin:round;">
<polyline style="fill-rule:evenodd;"
points="6551,957
6807,957
6807,1627
6551,1627
6551,957
" /> 
<polyline style="fill-rule:evenodd;"
points="6051,957
6307,957
6307,1627
6051,1627
6051,957
" /> 
<polyline style="fill-rule:evenodd;"
points="5551,957
5807,957
5807,1627
5551,1627
5551,957
" /> 
<polyline style="fill-rule:evenodd;"
points="5051,957
5307,957
5307,1627
5051,1627
5051,957
" /> 
<polyline style="fill-rule:evenodd;"
points="5051,3831
5307,3831
5307,4501
5051,4501
5051,3831
" /> 
<polyline style="fill-rule:evenodd;"
points="5551,3831
5807,3831
5807,4501
5551,4501
5551,3831
" /> 
<polyline style="fill-rule:evenodd;"
points="6051,3831
6307,3831
6307,4501
6051,4501
6051,3831
" /> 
<polyline style="fill-rule:evenodd;"
points="6551,3831
6807,3831
6807,4501
6551,4501
6551,3831
" /> 
<polyline style="fill-rule:evenodd;"
points="9885,2120
9894,2122
9904,2124
9913,2127
9921,2131
9930,2136
9938,2142
9945,2149
9951,2156
9957,2164
9962,2172
9966,2181
9969,2190
9972,2199
9973,2209
9974,2218
9974,2582
9973,2592
9972,2602
9969,2611
9966,2620
9962,2629
9957,2637
9951,2645
9945,2652
9938,2658
9930,2664
9921,2669
9913,2673
9904,2677
9894,2679
9885,2680
9875,2681
9383,2681
9373,2680
9364,2679
9354,2677
9345,2673
9337,2669
9328,2664
9321,2658
9313,2652
9307,2645
9301,2637
9296,2629
9292,2620
9289,2611
9286,2602
9285,2592
9285,2582
9285,2218
9285,2209
9286,2199
9289,2190
9292,2181
9296,2172
9301,2164
9307,2156
9313,2149
9321,2142
9328,2136
9337,2131
9345,2127
9354,2124
9364,2122
9373,2120
9383,2120
9875,2120
9885,2120
" /> 
<polyline style="fill-rule:evenodd;"
points="9885,949
9894,950
9904,953
9913,956
9921,960
9930,965
9938,971
9945,977
9951,985
9957,992
9962,1001
9966,1009
9969,1018
9972,1028
9973,1037
9974,1047
9974,1411
9973,1421
9972,1430
9969,1440
9966,1449
9962,1458
9957,1466
9951,1474
9945,1481
9938,1487
9930,1493
9921,1498
9913,1502
9904,1505
9894,1508
9885,1509
9875,1510
9383,1510
9373,1509
9364,1508
9354,1505
9345,1502
9337,1498
9328,1493
9321,1487
9313,1481
9307,1474
9301,1466
9296,1458
9292,1449
9289,1440
9286,1430
9285,1421
9285,1411
9285,1047
9285,1037
9286,1028
9289,1018
9292,1009
9296,1001
9301,992
9307,985
9313,977
9321,971
9328,965
9337,960
9345,956
9354,953
9364,950
9373,949
9383,949
9875,949
9885,949
" /> 
<polyline style="fill-rule:evenodd;"
points="8285,2120
8294,2122
8304,2124
8313,2127
8321,2131
8330,2136
8338,2142
8345,2149
8351,2156
8357,2164
8362,2172
8366,2181
8369,2190
8372,2199
8373,2209
8374,2218
8374,2582
8373,2592
8372,2602
8369,2611
8366,2620
8362,2629
8357,2637
8351,2645
8345,2652
8338,2658
8330,2664
8321,2669
8313,2673
8304,2677
8294,2679
8285,2680
8275,2681
7783,2681
7773,2680
7764,2679
7754,2677
7745,2673
7737,2669
7728,2664
7721,2658
7713,2652
7707,2645
7701,2637
7696,2629
7692,2620
7689,2611
7686,2602
7685,2592
7685,2582
7685,2218
7685,2209
7686,2199
7689,2190
7692,2181
7696,2172
7701,2164
7707,2156
7713,2149
7721,2142
7728,2136
7737,2131
7745,2127
7754,2124
7764,2122
7773,2120
7783,2120
8275,2120
8285,2120
" /> 
<polyline style="fill-rule:evenodd;"
points="8285,949
8294,950
8304,953
8313,956
8321,960
8330,965
8338,971
8345,977
8351,985
8357,992
8362,1001
8366,1009
8369,1018
8372,1028
8373,1037
8374,1047
8374,1411
8373,1421
8372,1430
8369,1440
8366,1449
8362,1458
8357,1466
8351,1474
8345,1481
8338,1487
8330,1493
8321,1498
8313,1502
8304,1505
8294,1508
8285,1509
8275,1510
7783,1510
7773,1509
7764,1508
7754,1505
7745,1502
7737,1498
7728,1493
7721,1487
7713,1481
7707,1474
7701,1466
7696,1458
7692,1449
7689,1440
7686,1430
7685,1421
7685,1411
7685,1047
7685,1037
7686,1028
7689,1018
7692,1009
7696,1001
7701,992
7707,985
7713,977
7721,971
7728,965
7737,960
7745,956
7754,953
7764,950
7773,949
7783,949
8275,949
8285,949
" /> 
<polyline style="fill-rule:evenodd;"
points="8358,3512
8358,3198
8712,3198
8712,3512
8358,3512
" /> 
<polyline style="fill-rule:evenodd;"
points="8358,4261
8358,3946
8712,3946
8712,4261
8358,4261
" /> 
<polyline style="fill-rule:evenodd;"
points="9146,3887
9146,3572
9500,3572
9500,3887
9146,3887
" /> 
<polyline style="fill-rule:evenodd;"
points="740,5887
740,5572
1134,5572
1134,5887
740,5887
" /> 
<polyline style="fill-rule:evenodd;"
points="1724,5887
1724,5572
2118,5572
2118,5887
1724,5887
" /> 
<polyline style="fill-rule:evenodd;"
points="1724,6438
1724,6123
2118,6123
2118,6438
1724,6438
" /> 
<polyline style="fill-rule:evenodd;"
points="740,6438
740,6123
1134,6123
1134,6438
740,6438
" /> 
<polyline style="fill-rule:evenodd;"
points="3435,6120
3444,6122
3454,6124
3463,6127
3471,6131
3480,6136
3488,6142
3495,6149
3501,6156
3507,6164
3512,6172
3516,6181
3519,6190
3522,6199
3523,6209
3524,6218
3524,6582
3523,6592
3522,6602
3519,6611
3516,6620
3512,6629
3507,6637
3501,6645
3495,6652
3488,6658
3480,6664
3471,6669
3463,6673
3454,6677
3444,6679
3435,6680
3425,6681
2933,6681
2923,6680
2914,6679
2904,6677
2895,6673
2887,6669
2878,6664
2871,6658
2863,6652
2857,6645
2851,6637
2846,6629
2842,6620
2839,6611
2836,6602
2835,6592
2835,6582
2835,6218
2835,6209
2836,6199
2839,6190
2842,6181
2846,6172
2851,6164
2857,6156
2863,6149
2871,6142
2878,6136
2887,6131
2895,6127
2904,6124
2914,6122
2923,6120
2933,6120
3425,6120
3435,6120
" /> 
<polyline style="fill-rule:evenodd;"
points="3435,4949
3444,4950
3454,4953
3463,4956
3471,4960
3480,4965
3488,4971
3495,4977
3501,4985
3507,4992
3512,5001
3516,5009
3519,5018
3522,5028
3523,5037
3524,5047
3524,5411
3523,5421
3522,5430
3519,5440
3516,5449
3512,5458
3507,5466
3501,5474
3495,5481
3488,5487
3480,5493
3471,5498
3463,5502
3454,5505
3444,5508
3435,5509
3425,5510
2933,5510
2923,5509
2914,5508
2904,5505
2895,5502
2887,5498
2878,5493
2871,5487
2863,5481
2857,5474
2851,5466
2846,5458
2842,5449
2839,5440
2836,5430
2835,5421
2835,5411
2835,5047
2835,5037
2836,5028
2839,5018
2842,5009
2846,5001
2851,4992
2857,4985
2863,4977
2871,4971
2878,4965
2887,4960
2895,4956
2904,4953
2914,4950
2923,4949
2933,4949
3425,4949
3435,4949
" /> 
<polyline style="fill-rule:evenodd;"
points="4935,4949
4944,4950
4954,4953
4963,4956
4971,4960
4980,4965
4988,4971
4995,4977
5001,4985
5007,4992
5012,5001
5016,5009
5019,5018
5022,5028
5023,5037
5024,5047
5024,5411
5023,5421
5022,5430
5019,5440
5016,5449
5012,5458
5007,5466
5001,5474
4995,5481
4988,5487
4980,5493
4971,5498
4963,5502
4954,5505
4944,5508
4935,5509
4925,5510
4433,5510
4423,5509
4414,5508
4404,5505
4395,5502
4387,5498
4378,5493
4371,5487
4363,5481
4357,5474
4351,5466
4346,5458
4342,5449
4339,5440
4336,5430
4335,5421
4335,5411
4335,5047
4335,5037
4336,5028
4339,5018
4342,5009
4346,5001
4351,4992
4357,4985
4363,4977
4371,4971
4378,4965
4387,4960
4395,4956
4404,4953
4414,4950
4423,4949
4433,4949
4925,4949
4935,4949
" /> 
<polyline style="fill-rule:evenodd;"
points="4935,6120
4944,6122
4954,6124
4963,6127
4971,6131
4980,6136
4988,6142
4995,6149
5001,6156
5007,6164
5012,6172
5016,6181
5019,6190
5022,6199
5023,6209
5024,6218
5024,6582
5023,6592
5022,6602
5019,6611
5016,6620
5012,6629
5007,6637
5001,6645
4995,6652
4988,6658
4980,6664
4971,6669
4963,6673
4954,6677
4944,6679
4935,6680
4925,6681
4433,6681
4423,6680
4414,6679
4404,6677
4395,6673
4387,6669
4378,6664
4371,6658
4363,6652
4357,6645
4351,6637
4346,6629
4342,6620
4339,6611
4336,6602
4335,6592
4335,6582
4335,6218
4335,6209
4336,6199
4339,6190
4342,6181
4346,6172
4351,6164
4357,6156
4363,6149
4371,6142
4378,6136
4387,6131
4395,6127
4404,6124
4414,6122
4423,6120
4433,6120
4925,6120
4935,6120
" /> 
<polyline style="fill-rule:evenodd;"
points="6435,6370
6444,6372
6454,6374
6463,6377
6471,6381
6480,6386
6488,6392
6495,6399
6501,6406
6507,6414
6512,6422
6516,6431
6519,6440
6522,6449
6523,6459
6524,6468
6524,6832
6523,6842
6522,6852
6519,6861
6516,6870
6512,6879
6507,6887
6501,6895
6495,6902
6488,6908
6480,6914
6471,6919
6463,6923
6454,6927
6444,6929
6435,6930
6425,6931
5933,6931
5923,6930
5914,6929
5904,6927
5895,6923
5887,6919
5878,6914
5871,6908
5863,6902
5857,6895
5851,6887
5846,6879
5842,6870
5839,6861
5836,6852
5835,6842
5835,6832
5835,6468
5835,6459
5836,6449
5839,6440
5842,6431
5846,6422
5851,6414
5857,6406
5863,6399
5871,6392
5878,6386
5887,6381
5895,6377
5904,6374
5914,6372
5923,6370
5933,6370
6425,6370
6435,6370
" /> 
<polyline style="fill-rule:evenodd;"
points="6435,5199
6444,5200
6454,5203
6463,5206
6471,5210
6480,5215
6488,5221
6495,5227
6501,5235
6507,5242
6512,5251
6516,5259
6519,5268
6522,5278
6523,5287
6524,5297
6524,5661
6523,5671
6522,5680
6519,5690
6516,5699
6512,5708
6507,5716
6501,5724
6495,5731
6488,5737
6480,5743
6471,5748
6463,5752
6454,5755
6444,5758
6435,5759
6425,5760
5933,5760
5923,5759
5914,5758
5904,5755
5895,5752
5887,5748
5878,5743
5871,5737
5863,5731
5857,5724
5851,5716
5846,5708
5842,5699
5839,5690
5836,5680
5835,5671
5835,5661
5835,5297
5835,5287
5836,5278
5839,5268
5842,5259
5846,5251
5851,5242
5857,5235
5863,5227
5871,5221
5878,5215
5887,5210
5895,5206
5904,5203
5914,5200
5923,5199
5933,5199
6425,5199
6435,5199
" /> 
<polyline style="fill-rule:evenodd;"
points="4043,3532
4043,3926
2803,3926
2803,3532
4043,3532
" /> 
<polyline style="fill-rule:evenodd;"
points="2055,3532
2055,3926
815,3926
815,3532
2055,3532
" /> 
<polyline style="fill-rule:evenodd;"
points="4043,2532
4043,2926
2803,2926
2803,2532
4043,2532
" /> 
<polyline style="fill-rule:evenodd;"
points="2055,2532
2055,2926
815,2926
815,2532
2055,2532
" /> 
<polyline style="fill-rule:evenodd;"
points="4043,1532
4043,1926
2803,1926
2803,1532
4043,1532
" /> 
<polyline style="fill-rule:evenodd;"
points="2055,1532
2055,1926
815,1926
815,1532
2055,1532
" /> 
<polyline style="fill-rule:evenodd;"
points="7309,5676
7309,5282
8549,5282
8549,5676
7309,5676
" /> 
<polyline style="fill-rule:evenodd;"
points="9297,5676
9297,5282
10537,5282
10537,5676
9297,5676
" /> 
<polyline style="fill-rule:evenodd;"
points="7309,6676
7309,6282
8549,6282
8549,6676
7309,6676
" /> 
<polyline style="fill-rule:evenodd;"
points="9297,6676
9297,6282
10537,6282
10537,6676
9297,6676
" /> 
</g>
<g style="fill:#000000; fill-opacity:1.0; 
stroke:#000000; stroke-width:118.11; stroke-opacity:1; 
stroke-linecap:round; stroke-linejoin:round;">
</g>
<g style="fill:#000000; fill-opacity:0.0; 
stroke:#000000; stroke-width:118.11; stroke-opacity:1; 
stroke-linecap:round; stroke-linejoin:round;">
<path d="M937 5729
L937 3987
" />
<path d="M1195 3729
L1435 3729
" />
<path d="M937 3987
L1195 3729
" />
<path d="M8535 2907
L8029 2400
" />
<path d="M8535 3355
L8535 2907
" />
<path d="M6679 2829
L6679 2779
" />
<path d="M6679 4166
L6679 2829
" />
<path d="M7058 2400
L8029 2400
" />
<path d="M6679 2779
L7058 2400
" />
<path d="M9123 2907
L9629 2400
" />
<path d="M8535 2907
L9123 2907
" />
<path d="M529 3329
L1012 3729
" />
<path d="M1012 3729
L1435 3729
" />
<path d="M6179 2229
L529 2229
" />
<path d="M529 2229
L529 3329
" />
<path d="M6679 2829
L6679 2729
" />
<path d="M6679 2729
L6179 2229
" />
<path d="M1435 1223
L1435 1729
" />
<path d="M1429 479
L1435 1223
" />
<path d="M1429 479
L5179 479
" />
<path d="M7929 5479
L7929 3729
" />
<path d="M7929 3729
L9323 3729
" />
<path d="M5179 1292
L5179 479
" />
<path d="M10329 1229
L9629 1229
" />
<path d="M5283 475
L5279 479
" />
<path d="M5279 479
L5179 479
" />
<path d="M10329 1229
L10329 529
" />
<path d="M10329 529
L5283 475
" />
<path d="M10329 3529
L10329 1229
" />
<path d="M9323 3729
L10129 3729
" />
<path d="M10129 3729
L10329 3529
" />
<path d="M2529 5829
L4108 5829
" />
<path d="M4108 5829
L4679 6400
" />
<path d="M1921 5729
L2429 5729
" />
<path d="M2429 5729
L2529 5829
" />
<path d="M3059 6280
L3179 6400
" />
<path d="M1921 6280
L3059 6280
" />
<path d="M937 6280
L937 6983
" />
<path d="M5846 6983
L6179 6650
" />
<path d="M937 6983
L5846 6983
" />
<path d="M4161 3729
L4661 3229
" />
<path d="M3423 3729
L4161 3729
" />
<path d="M4661 3229
L5679 3229
" />
<path d="M5679 3229
L5679 4166
" />
<path d="M5063 5229
L4679 5229
" />
<path d="M5069 5229
L5063 5229
" />
<path d="M5679 4619
L5069 5229
" />
<path d="M5679 4166
L5679 4619
" />
<path d="M6179 5479
L6179 4166
" />
<path d="M6179 2729
L6179 4166
" />
<path d="M3423 2729
L6179 2729
" />
<path d="M4292 4166
L5179 4166
" />
<path d="M3533 4925
L4292 4166
" />
<path d="M3483 4925
L3533 4925
" />
<path d="M3179 5229
L3483 4925
" />
<path d="M2929 5029
L3179 5229
" />
<path d="M2429 4429
L2929 5029
" />
<path d="M2429 2985
L2429 4429
" />
<path d="M1435 2729
L2173 2729
" />
<path d="M2173 2729
L2429 2985
" />
<path d="M4429 1729
L4653 1953
" />
<path d="M6679 1745
L6679 1292
" />
<path d="M6470 1953
L6679 1745
" />
<path d="M4653 1953
L6470 1953
" />
<path d="M3423 1729
L4429 1729
" />
<path d="M7966 1292
L8029 1229
" />
<path d="M6679 1292
L7966 1292
" />
<path d="M8555 4103
L8535 4103
" />
<path d="M8929 4477
L8555 4103
" />
<path d="M8929 6217
L8929 4477
" />
<path d="M8667 6479
L8929 6217
" />
<path d="M7929 6479
L8667 6479
" />
</g>
<g style="fill:#FFFFFF; fill-opacity:0.0; 
stroke:#FFFFFF; stroke-width:118.11; stroke-opacity:1; 
stroke-linecap:round; stroke-linejoin:round;">
</g>
<g style="fill:#000000; fill-opacity:0.0; 
stroke:#000000; stroke-width:118.11; stroke-opacity:1; 
stroke-linecap:round; stroke-linejoin:round;">
</g> 
</svg>
